<?xml version="1.0" encoding="UTF-8" ?>
<!DOCTYPE svg PUBLIC "-//W3C//DTD SVG 1.1//EN" "http://www.w3.org/Graphics/SVG/1.1/DTD/svg11.dtd">
<svg width="150pt" height="150pt" viewBox="0 0 1155 866" version="1.1" style="shape-rendering:geometricPrecision; background: none;text-rendering:geometricPrecision; image-rendering:optimizeQuality; fill-rule:evenodd; clip-rule:evenodd" xmlns="http://www.w3.org/2000/svg">
<path fill="#fefefe" d=" M 0.00 0.00 L 1155.00 0.00 L 1155.00 866.00 L 0.00 866.00 L 0.00 0.00 Z" />
<path fill="#070707" d=" M 593.86 9.84 C 597.10 8.97 600.61 9.59 603.95 9.58 C 604.76 14.26 608.90 16.99 612.32 19.78 C 626.17 29.99 641.16 38.51 656.21 46.79 C 667.46 53.44 679.29 58.99 690.85 65.07 C 706.68 73.60 722.78 81.63 738.49 90.41 C 745.71 95.35 753.45 99.45 760.70 104.34 C 779.04 115.43 797.72 126.16 814.46 139.61 C 830.69 151.92 846.82 164.40 862.00 178.00 C 874.45 188.15 885.46 199.86 896.35 211.63 C 903.34 219.99 911.02 227.79 917.27 236.76 C 925.29 246.88 932.73 257.45 939.40 268.50 C 948.32 282.06 955.88 296.43 962.90 311.04 C 972.72 331.00 980.14 352.03 986.57 373.30 C 990.10 386.97 993.35 400.73 995.49 414.70 C 998.16 428.67 999.16 442.88 1000.41 457.02 C 1000.22 463.70 1001.42 470.32 1001.17 477.00 C 1001.21 489.01 1000.24 501.00 1000.43 513.02 C 998.83 539.22 997.08 565.66 990.19 591.10 C 986.80 604.55 984.33 618.21 980.70 631.60 C 977.91 641.24 975.28 650.92 972.34 660.51 C 970.49 665.54 973.29 670.59 974.79 675.33 C 978.15 683.63 977.60 692.70 978.23 701.45 C 991.41 704.52 1003.84 710.03 1016.69 714.12 C 1019.45 715.14 1022.94 715.78 1024.29 718.76 C 1027.44 724.61 1028.28 731.32 1030.60 737.50 C 1032.23 741.82 1030.92 746.51 1031.20 751.00 C 1031.44 758.21 1028.35 764.83 1026.35 771.59 C 1023.52 780.41 1017.49 787.65 1011.49 794.49 C 1005.87 799.67 999.91 804.59 993.25 808.38 C 989.13 810.77 984.84 812.86 980.93 815.59 C 972.42 811.43 963.85 807.31 954.86 804.26 C 933.44 795.88 911.71 788.35 889.73 781.59 C 883.21 779.66 876.65 777.85 869.98 776.53 C 871.51 767.97 875.16 759.97 877.61 751.65 C 866.82 749.27 856.43 745.38 845.60 743.21 C 833.94 740.78 822.26 738.51 810.64 735.91 C 781.43 730.29 751.83 726.93 722.26 723.92 C 707.85 722.50 693.45 721.02 679.00 720.25 C 671.38 719.04 663.63 719.69 656.00 718.62 C 633.33 718.49 610.67 718.39 588.00 718.26 C 582.65 718.51 577.35 717.50 572.00 717.68 C 554.34 717.75 536.66 717.33 519.00 717.75 C 508.37 718.86 497.63 717.87 487.01 719.15 C 471.73 719.72 456.54 721.46 441.31 722.71 C 431.25 724.15 421.07 724.28 411.05 726.01 C 398.20 727.24 385.47 729.54 372.72 731.52 C 359.94 734.50 346.89 736.17 334.19 739.49 C 325.06 741.25 316.07 743.61 306.99 745.61 C 308.45 754.02 312.85 761.77 313.69 770.31 C 310.05 771.90 306.23 773.05 302.35 773.90 C 291.33 776.62 280.26 779.21 269.46 782.75 C 246.21 789.87 222.93 797.32 200.88 807.65 C 191.81 801.60 181.33 797.34 173.94 789.06 C 166.97 782.53 160.49 775.06 157.27 765.93 C 155.81 761.02 154.27 756.13 152.73 751.25 C 150.89 745.67 151.92 739.73 151.44 733.98 C 152.88 726.10 154.59 718.16 157.75 710.78 C 161.15 705.13 168.67 705.49 174.05 702.89 C 184.83 699.61 195.31 695.19 206.44 693.16 C 206.82 687.89 205.80 682.53 207.23 677.36 C 208.27 670.31 211.72 663.95 213.33 657.06 C 209.43 642.12 205.67 627.14 201.74 612.21 C 198.68 597.78 195.90 583.29 192.87 568.86 C 191.00 557.95 189.57 546.97 188.52 535.97 C 188.00 525.42 186.48 514.94 186.64 504.37 C 186.27 490.90 186.63 477.42 186.43 463.95 C 186.26 459.62 187.20 455.32 186.78 450.99 C 190.04 413.21 198.11 375.73 211.55 340.22 C 218.63 319.73 228.47 300.27 239.99 281.92 C 253.24 260.87 267.09 240.12 283.03 220.99 C 301.72 200.08 320.99 179.42 343.38 162.39 C 356.38 151.93 369.84 142.06 383.49 132.46 C 396.73 123.17 410.62 114.88 424.43 106.47 C 440.24 96.65 456.55 87.68 473.03 79.05 C 483.61 74.08 493.60 67.97 504.15 62.95 C 512.80 58.60 521.74 54.82 530.16 50.02 C 543.23 43.54 556.40 37.24 569.32 30.44 C 578.46 24.90 588.38 19.44 593.86 9.84 Z" />
<path fill="#fefefe" d=" M 597.49 24.32 C 598.93 24.02 600.03 25.14 601.14 25.87 C 608.07 31.28 615.12 36.58 622.61 41.21 C 632.06 46.39 640.89 52.72 650.85 56.96 C 663.77 63.75 676.61 70.71 689.62 77.35 C 698.42 82.50 707.87 86.39 716.79 91.31 C 741.73 105.22 765.85 120.54 789.65 136.31 C 803.67 146.24 818.10 155.65 831.29 166.70 C 841.14 174.82 850.97 182.98 860.34 191.66 C 866.20 197.79 872.08 203.91 878.01 209.99 C 889.78 223.24 899.35 238.20 909.05 252.97 C 914.92 262.91 920.95 272.78 925.93 283.21 C 929.46 290.46 933.35 297.58 935.87 305.27 C 931.92 305.70 928.00 306.64 924.01 306.39 C 918.14 306.45 912.37 304.91 906.49 305.47 C 906.05 304.15 905.66 302.81 905.30 301.48 C 902.01 301.51 898.71 301.47 895.43 301.47 C 892.88 304.32 889.91 306.94 886.28 308.30 C 882.32 308.48 878.37 309.38 875.28 311.98 C 867.87 314.97 859.82 315.90 852.00 317.32 C 847.35 317.85 842.63 318.05 837.97 317.71 C 834.16 316.10 831.63 312.52 828.63 309.81 C 830.01 307.28 831.46 304.80 832.93 302.32 C 838.82 302.92 844.29 305.65 850.23 305.82 C 852.00 298.65 854.11 291.56 856.31 284.51 C 856.67 283.31 856.63 282.05 856.71 280.83 C 851.17 279.55 845.75 277.80 840.17 276.66 C 840.15 273.66 840.19 270.66 840.29 267.67 C 845.81 267.26 851.30 266.17 856.59 264.50 C 857.25 258.90 855.09 253.59 853.71 248.27 C 852.95 245.76 852.63 243.06 851.28 240.77 C 850.10 239.17 847.89 239.57 846.19 239.64 C 841.55 240.49 837.11 242.25 832.40 242.75 C 831.16 240.54 829.93 238.33 828.68 236.13 C 832.08 232.67 835.71 229.46 839.44 226.37 C 840.85 225.53 841.10 223.31 839.89 222.19 C 834.56 216.27 828.40 211.18 822.89 205.44 C 817.96 208.79 813.97 213.28 809.11 216.73 C 806.55 215.31 803.94 213.99 801.45 212.46 C 802.68 206.84 804.82 201.31 804.87 195.50 C 796.59 192.88 788.03 191.28 779.61 189.23 C 778.36 194.46 777.74 200.11 774.09 204.35 C 770.92 204.34 767.75 204.32 764.58 204.39 C 762.44 199.55 761.90 194.26 760.40 189.24 C 755.17 189.14 750.33 191.35 745.29 192.39 C 741.59 193.16 737.85 193.71 734.20 194.71 C 734.20 200.01 736.66 204.91 737.55 210.08 C 734.09 211.28 730.92 213.68 727.20 213.87 C 723.45 210.98 720.53 207.16 716.96 204.05 C 712.17 207.60 707.89 211.78 703.24 215.50 C 702.12 215.86 700.88 215.95 699.81 215.42 C 696.23 213.77 692.92 211.60 689.29 210.05 C 689.40 205.70 690.67 201.53 691.76 197.35 C 700.07 197.32 708.39 197.47 716.70 197.34 C 717.00 190.56 716.78 183.77 716.90 176.99 C 717.13 171.88 717.46 166.75 717.23 161.64 C 709.16 161.44 701.09 161.56 693.04 161.18 C 690.52 160.65 690.23 157.61 689.35 155.63 C 688.93 153.69 687.63 151.57 688.38 149.60 C 695.46 146.03 702.47 142.32 709.57 138.76 C 708.96 135.91 707.66 133.30 706.17 130.83 C 701.39 122.70 697.21 113.91 690.24 107.37 C 683.61 110.74 677.08 114.32 670.37 117.53 C 667.57 118.82 665.85 115.49 663.92 114.08 C 662.57 112.43 659.20 111.05 660.49 108.46 C 662.55 104.96 665.09 101.76 667.07 98.21 C 668.73 95.14 671.56 92.28 670.81 88.49 C 661.09 81.79 650.66 76.15 640.14 70.83 C 635.54 77.32 631.72 84.32 627.19 90.86 C 622.62 89.84 618.13 88.55 613.60 87.39 C 613.23 79.53 613.76 71.67 613.57 63.81 C 601.17 63.54 588.74 63.52 576.34 63.70 C 576.25 71.29 576.48 78.89 576.14 86.48 C 571.00 87.30 565.90 88.45 560.69 88.76 C 557.14 82.60 553.58 76.44 550.12 70.23 C 539.15 75.11 528.79 81.24 518.02 86.55 C 518.47 94.19 524.99 99.42 527.99 106.09 C 525.21 108.28 522.50 110.53 519.82 112.84 C 518.56 113.79 517.16 115.38 515.43 114.55 C 509.96 112.16 505.19 108.30 499.49 106.37 C 497.20 105.28 495.76 107.98 494.47 109.39 C 489.39 116.51 485.19 124.21 480.74 131.73 C 479.64 133.50 478.75 136.62 481.09 137.79 C 486.30 140.31 491.41 143.04 496.64 145.52 C 495.23 150.34 494.03 155.41 490.80 159.40 C 484.37 159.26 477.94 159.32 471.52 159.38 C 471.81 170.91 471.26 182.45 471.59 193.97 L 472.23 194.57 C 478.06 195.07 483.95 194.38 489.78 194.90 C 490.09 195.11 490.71 195.53 491.01 195.74 C 492.36 200.23 493.13 204.87 494.58 209.33 C 489.29 211.96 484.16 214.89 479.01 217.78 C 479.62 221.23 481.79 224.08 483.04 227.30 C 479.77 227.71 476.55 228.47 473.27 228.82 C 471.41 226.30 469.69 223.69 468.07 221.02 C 471.43 217.85 475.00 214.92 478.48 211.90 C 477.07 209.61 475.41 207.47 473.31 205.78 C 468.06 201.50 463.80 196.10 458.13 192.34 C 454.73 195.39 451.71 198.91 447.99 201.59 C 444.53 201.35 441.52 199.32 438.29 198.24 C 439.12 194.04 440.20 189.89 441.41 185.79 C 442.23 184.02 440.74 182.36 439.02 182.11 C 431.30 179.96 423.44 178.39 415.72 176.28 C 414.82 181.60 413.65 186.97 410.89 191.67 C 407.51 191.77 404.13 191.74 400.76 191.61 C 399.65 187.54 398.39 183.51 397.58 179.37 C 397.45 177.72 395.67 176.16 394.02 176.83 C 386.25 178.59 378.52 180.54 370.75 182.27 C 372.00 188.00 373.62 193.64 374.84 199.37 C 371.66 200.36 368.73 202.59 365.33 202.65 C 361.08 199.62 357.87 195.37 353.75 192.20 C 352.00 192.09 350.88 193.66 349.62 194.61 C 344.65 199.29 339.20 203.47 334.48 208.41 C 334.48 208.71 334.50 209.31 334.50 209.61 C 338.33 213.99 342.97 217.60 346.83 221.95 C 345.63 224.30 344.26 226.56 342.67 228.66 C 336.43 227.36 330.27 225.66 324.01 224.43 C 322.09 232.84 319.23 241.02 317.17 249.40 C 322.61 251.99 328.74 252.70 334.60 253.91 C 334.72 256.70 334.70 259.49 334.64 262.29 C 329.05 263.37 323.52 264.73 318.00 266.10 C 319.71 274.77 322.46 283.20 324.69 291.75 C 330.47 290.88 336.02 288.87 341.83 288.18 C 343.04 290.59 344.34 292.94 345.70 295.28 C 341.95 299.29 337.44 302.58 334.07 306.96 C 335.29 308.39 336.55 309.80 337.82 311.21 C 328.12 308.31 318.22 305.98 308.82 302.15 C 305.22 300.77 302.47 298.01 299.58 295.59 C 296.61 294.85 293.45 295.43 290.41 295.34 C 290.08 296.47 289.75 297.61 289.43 298.76 C 278.30 298.71 267.17 298.53 256.04 298.17 C 259.24 287.01 265.95 277.36 270.95 266.99 C 274.60 260.98 277.87 254.74 281.60 248.77 C 291.34 235.21 300.77 221.37 311.87 208.84 C 317.44 201.18 324.19 194.51 331.10 188.06 C 356.48 165.33 384.48 145.76 412.67 126.73 C 421.91 121.37 430.78 115.39 440.04 110.06 C 451.19 104.20 462.35 98.36 473.59 92.68 C 485.24 86.20 497.05 80.03 508.73 73.60 C 519.26 68.48 529.96 63.68 540.53 58.64 C 557.00 49.90 573.94 41.91 589.36 31.35 C 592.36 29.36 595.01 26.93 597.49 24.32 Z" />
<path fill="#fefefe" d=" M 587.22 75.35 C 592.73 75.33 598.23 75.41 603.75 75.38 C 603.77 82.40 603.61 89.42 603.57 96.45 C 608.16 98.52 613.10 99.63 617.93 101.00 C 622.73 102.21 627.37 104.10 632.32 104.69 C 635.84 98.68 639.45 92.72 643.08 86.77 C 647.82 88.56 652.29 91.00 656.97 92.95 C 653.90 98.76 649.89 104.01 646.77 109.78 C 646.21 110.88 646.39 112.15 646.27 113.33 C 653.71 118.79 659.63 126.02 666.90 131.72 C 673.78 128.78 680.31 125.10 687.22 122.23 C 689.69 126.22 692.37 130.08 694.80 134.10 C 687.97 136.78 681.66 140.58 675.09 143.80 C 677.00 153.27 681.23 162.15 683.58 171.54 C 691.20 172.60 698.94 172.53 706.63 172.47 C 706.63 176.88 706.49 181.29 706.46 185.70 C 698.82 185.68 691.19 185.46 683.56 185.51 C 681.68 195.67 678.00 205.40 676.14 215.55 C 682.05 218.63 688.00 221.63 693.94 224.66 C 691.18 228.64 688.84 232.88 686.29 236.99 C 679.95 234.14 674.23 230.10 667.88 227.28 C 661.37 233.65 654.88 240.03 648.46 246.49 C 647.32 247.39 646.73 249.02 647.63 250.31 C 650.44 255.18 653.45 259.94 655.89 265.02 C 651.33 266.75 647.07 269.16 642.56 271.01 C 638.98 266.17 636.00 260.92 632.41 256.09 C 622.24 258.36 612.41 261.97 602.33 264.61 C 602.17 269.93 602.31 275.25 602.10 280.58 C 596.55 280.74 591.00 280.62 585.45 280.55 C 585.31 275.28 585.44 270.01 585.46 264.75 C 574.64 261.61 563.55 259.36 552.48 257.28 C 549.90 261.65 547.33 266.02 544.62 270.31 C 540.08 268.15 535.58 265.89 531.03 263.76 C 533.60 258.90 536.48 254.16 539.84 249.80 C 538.00 246.95 534.51 246.12 532.09 243.91 C 528.06 240.28 523.76 236.91 520.38 232.62 C 518.44 230.76 516.49 227.35 513.31 228.48 C 508.67 230.43 504.45 233.31 499.65 234.95 C 497.06 231.00 495.05 226.72 492.51 222.74 C 497.53 219.91 503.36 218.31 507.69 214.38 C 505.39 207.34 501.79 200.54 501.56 192.99 C 501.46 189.70 500.77 185.87 497.86 183.87 C 492.57 183.28 487.21 183.78 481.89 183.57 C 481.66 179.16 481.87 174.74 481.75 170.32 C 487.93 170.26 494.10 170.39 500.28 170.32 C 503.38 161.18 505.92 151.85 509.21 142.77 C 509.59 141.69 509.36 140.42 508.31 139.82 C 503.73 136.83 498.85 134.31 493.90 132.02 C 495.98 127.90 498.48 124.03 500.95 120.14 C 507.32 122.76 513.20 126.43 519.61 128.94 C 525.56 121.18 533.78 115.62 541.92 110.38 C 539.84 103.57 535.30 97.85 531.62 91.85 C 536.39 89.37 541.22 86.96 546.32 85.21 C 550.56 90.52 552.97 96.94 556.72 102.56 C 566.58 100.40 576.61 99.14 586.53 97.25 C 587.09 89.96 586.08 82.59 587.22 75.35 Z" />
<path fill="#070707" d=" M 571.99 109.00 C 579.63 107.40 587.52 105.79 595.33 107.14 C 604.95 107.99 614.59 109.74 623.50 113.58 C 627.68 115.38 631.96 117.03 636.07 118.94 C 639.69 123.07 644.34 125.99 648.50 129.50 C 657.68 139.44 665.95 151.26 667.70 165.02 C 668.04 168.07 669.65 170.71 671.38 173.17 C 670.58 175.06 669.33 176.86 669.34 178.99 C 668.46 188.59 668.37 198.53 664.56 207.57 C 661.86 213.56 659.15 219.76 654.57 224.59 C 648.55 231.30 642.15 237.89 634.32 242.50 C 617.80 252.46 597.92 254.65 579.02 253.37 C 565.37 251.66 553.31 244.59 542.21 236.89 C 535.86 231.94 529.62 226.59 525.25 219.74 C 515.08 204.67 511.90 185.85 513.44 167.98 C 516.22 152.12 525.28 137.83 537.23 127.23 C 546.78 117.97 559.19 112.17 571.99 109.00 Z" />
<path fill="#fefefe" d=" M 563.73 123.82 C 575.86 118.51 589.49 117.20 602.51 119.16 C 610.79 120.27 618.05 124.63 626.03 126.75 C 623.39 134.78 615.41 139.13 609.30 144.31 C 605.67 147.39 602.91 151.42 601.18 155.85 C 597.10 155.48 593.12 154.06 589.00 154.51 C 586.57 154.80 584.20 155.41 581.79 155.76 C 574.62 150.35 575.41 140.59 571.61 133.23 C 570.12 129.26 566.65 126.68 563.73 123.82 Z" />
<path fill="#fefefe" d=" M 527.85 157.65 C 533.37 146.18 542.69 137.01 552.76 129.45 C 556.75 132.28 560.84 135.42 562.83 140.05 C 566.08 147.44 567.74 155.56 572.48 162.24 C 570.90 164.06 569.10 165.71 567.65 167.64 C 565.82 170.27 565.20 173.49 564.28 176.51 C 558.56 176.74 552.98 175.20 547.66 173.26 C 540.18 170.28 531.76 170.78 524.09 172.75 C 523.78 167.43 525.68 162.39 527.85 157.65 Z" />
<path fill="#fefefe" d=" M 635.24 133.56 C 644.74 140.02 651.34 149.84 656.08 160.14 C 657.19 162.47 657.49 165.07 657.94 167.59 C 647.23 165.69 639.43 175.73 629.02 175.78 C 625.25 176.16 621.64 174.99 618.05 174.04 C 616.88 169.36 613.84 165.63 611.03 161.86 C 612.18 155.77 617.83 151.90 622.46 148.36 C 628.11 144.84 632.09 139.31 635.24 133.56 Z" />
<path fill="#fefefe" d=" M 585.43 166.67 C 590.75 166.03 596.74 165.41 601.45 168.51 C 604.83 170.38 607.96 173.29 608.67 177.25 C 609.83 183.18 606.21 189.19 601.18 192.17 C 597.25 194.35 592.65 196.55 588.10 194.89 C 581.31 193.19 573.88 187.74 574.46 179.96 C 574.57 173.64 579.86 168.75 585.43 166.67 Z" />
<path fill="#fefefe" d=" M 633.08 187.35 C 642.13 185.11 649.90 177.47 659.79 179.57 C 659.14 185.44 659.24 191.51 657.05 197.09 C 653.86 207.38 648.31 217.52 639.43 223.93 C 635.74 215.50 626.47 212.42 619.24 207.85 C 615.99 205.65 612.17 202.46 612.51 198.15 C 614.40 194.08 617.06 190.41 618.75 186.24 C 623.42 187.46 628.28 187.82 633.08 187.35 Z" />
<path fill="#fefefe" d=" M 523.45 185.66 C 532.69 180.17 544.03 182.51 553.49 186.19 C 557.27 187.92 561.67 186.86 565.39 188.49 C 567.56 191.73 569.53 195.11 571.90 198.21 C 569.83 200.35 567.35 202.42 566.57 205.42 C 565.33 211.69 565.82 218.31 563.34 224.31 C 561.47 227.88 558.54 230.83 555.06 232.85 C 543.86 224.85 533.58 214.96 527.49 202.43 C 525.16 197.14 523.02 191.55 523.45 185.66 Z" />
<path fill="#fefefe" d=" M 380.24 188.85 C 384.02 188.42 387.68 187.30 391.35 186.34 C 392.93 190.94 393.97 195.70 395.22 200.40 C 402.57 200.85 409.86 198.97 417.16 200.46 C 418.41 196.03 419.79 191.65 420.94 187.21 C 424.66 187.08 428.31 187.83 431.89 188.75 C 430.73 193.27 429.40 197.75 428.42 202.32 C 434.83 206.60 442.12 209.32 449.03 212.68 C 452.16 209.94 455.15 207.02 458.56 204.63 C 459.60 203.81 460.70 204.76 461.47 205.46 C 463.31 207.08 465.13 208.72 467.01 210.30 C 463.68 213.40 459.35 215.63 457.35 219.93 C 461.10 226.22 466.99 231.25 468.96 238.54 C 473.61 237.97 478.17 236.82 482.82 236.23 C 483.74 238.96 484.67 241.71 484.94 244.60 C 480.93 246.32 476.11 246.21 472.63 249.01 C 472.08 252.69 473.40 256.34 473.36 260.03 C 473.87 263.76 473.02 267.44 472.43 271.11 C 476.45 272.22 480.52 273.18 484.65 273.88 C 483.85 276.84 483.02 279.80 482.25 282.78 C 478.03 282.43 473.96 281.27 469.83 280.45 C 467.17 286.59 462.93 291.86 459.60 297.63 C 459.01 298.68 458.66 300.25 459.77 301.13 C 462.03 303.55 464.44 305.83 466.79 308.18 C 464.00 310.53 461.01 312.62 458.05 314.75 C 455.06 312.17 452.16 309.49 448.98 307.14 C 441.96 310.27 435.42 314.36 428.52 317.73 C 429.62 321.46 430.57 325.24 431.55 329.01 C 427.87 329.55 424.24 330.40 420.53 330.77 C 419.31 327.38 418.88 323.74 417.41 320.46 C 415.84 319.33 413.84 319.71 412.05 319.61 C 405.89 319.73 399.74 319.56 393.60 319.16 C 392.72 323.07 391.71 326.95 390.28 330.69 C 386.85 329.92 383.41 329.24 379.98 328.49 C 380.35 324.31 382.81 320.48 382.72 316.29 C 377.91 312.62 372.27 310.23 367.27 306.84 C 365.75 305.91 363.59 304.31 361.98 305.95 C 358.95 308.48 356.19 311.33 352.97 313.65 C 350.13 312.25 347.89 309.99 345.65 307.81 C 348.99 304.43 352.53 301.26 355.99 298.01 C 354.87 293.05 351.28 289.24 349.05 284.79 C 347.71 282.91 346.96 280.14 344.73 279.20 C 339.68 279.48 334.75 280.88 329.75 281.62 C 328.72 278.91 327.59 276.21 327.16 273.33 C 332.09 271.26 337.44 270.64 342.57 269.25 C 342.81 262.40 341.67 255.35 343.87 248.72 C 339.14 245.83 333.39 245.86 328.16 244.44 C 328.27 241.31 328.95 238.26 329.64 235.23 C 335.31 235.25 340.60 237.39 346.05 238.64 C 349.45 233.22 353.11 227.97 356.51 222.57 C 357.33 221.22 356.06 219.79 355.17 218.86 C 352.13 215.89 348.97 213.05 346.05 209.97 C 348.56 207.74 350.94 205.36 353.33 203.00 C 358.18 205.68 361.59 210.20 365.82 213.67 C 371.75 210.53 377.70 207.44 383.50 204.08 C 382.38 199.01 381.06 193.98 380.24 188.85 Z" />
<path fill="#fefefe" d=" M 743.28 201.63 C 746.97 200.71 750.68 199.81 754.47 199.30 C 756.14 203.86 756.94 208.66 757.99 213.39 C 765.52 213.50 773.05 213.48 780.58 213.47 C 782.19 208.83 782.84 203.90 784.70 199.35 C 788.44 200.20 792.05 201.58 795.89 201.99 C 795.04 207.15 792.97 212.03 792.15 217.21 C 797.13 220.21 802.07 223.28 807.18 226.06 C 808.59 226.82 810.71 227.47 811.90 225.98 C 815.24 222.95 818.71 220.07 822.14 217.14 C 824.77 219.45 827.24 221.93 829.55 224.56 C 825.64 227.56 821.67 230.65 818.60 234.53 C 818.58 234.85 818.54 235.51 818.51 235.83 C 821.87 241.31 825.01 246.93 827.96 252.65 C 833.87 251.90 839.43 249.40 845.41 249.05 C 846.16 252.09 846.87 255.15 847.62 258.20 C 842.68 259.37 837.59 260.07 832.81 261.80 C 831.91 262.97 832.43 264.59 832.29 265.95 C 832.38 271.71 832.18 277.47 832.35 283.23 C 837.55 284.47 842.75 285.81 847.70 287.89 C 846.78 290.86 845.66 293.77 844.32 296.58 C 839.31 295.01 834.24 293.61 829.08 292.65 C 825.27 298.70 821.24 304.63 817.80 310.90 C 821.12 314.33 824.92 317.31 827.95 321.02 C 825.86 323.53 823.32 325.60 820.88 327.74 C 817.36 324.57 813.78 321.48 810.12 318.49 C 803.75 321.56 797.52 324.94 791.37 328.42 C 790.71 332.85 792.94 337.19 793.75 341.51 C 790.27 342.54 786.74 343.42 783.15 343.94 C 781.78 339.77 780.71 335.51 779.21 331.39 C 771.64 333.03 763.90 332.06 756.24 332.21 C 755.08 336.04 753.94 339.87 753.02 343.76 C 749.33 343.41 745.74 342.45 742.19 341.49 C 742.73 337.52 743.71 333.60 743.71 329.57 C 739.27 326.92 734.64 324.58 730.22 321.89 C 728.27 320.78 726.32 319.52 724.09 319.13 C 720.72 320.91 718.31 324.04 715.21 326.23 C 712.84 324.05 710.35 322.01 707.86 319.98 C 710.72 317.62 713.32 314.97 715.75 312.18 C 712.74 305.13 706.65 299.77 704.82 292.16 C 700.38 292.29 696.09 293.52 691.68 293.83 C 691.02 291.15 690.37 288.46 689.91 285.73 C 693.53 284.91 697.13 283.93 700.59 282.56 C 701.15 274.90 701.93 267.24 701.63 259.55 C 697.83 258.28 693.93 257.36 690.08 256.26 C 690.61 253.57 691.34 250.92 691.97 248.25 C 696.63 248.07 701.09 249.64 705.71 249.93 C 708.94 243.96 713.50 238.87 717.34 233.32 C 717.97 232.28 718.02 230.85 717.08 229.97 C 714.68 227.05 711.75 224.63 709.08 221.97 C 711.58 220.04 713.99 217.99 716.34 215.87 C 719.98 218.24 722.35 222.14 726.12 224.34 C 733.46 222.27 740.08 218.03 746.70 214.28 C 745.84 209.99 744.61 205.79 743.28 201.63 Z" />
<path fill="#fefefe" d=" M 575.70 214.68 C 576.11 211.03 578.00 207.11 581.17 205.24 C 588.52 205.86 595.96 206.04 603.29 204.95 C 604.67 208.49 606.43 212.12 609.60 214.40 C 614.85 218.25 620.80 221.07 626.02 224.98 C 628.30 226.66 629.73 229.16 631.00 231.64 C 624.77 233.96 618.93 237.17 612.80 239.73 C 605.54 242.38 597.67 242.79 590.01 242.64 C 581.94 242.59 574.28 239.79 566.39 238.48 C 568.44 236.58 570.78 234.79 572.02 232.22 C 574.29 226.64 575.10 220.62 575.70 214.68 Z" />
<path fill="#070707" d=" M 393.41 208.69 C 400.16 207.15 407.13 207.35 414.01 207.62 C 437.70 209.51 459.01 227.84 464.30 251.03 C 464.62 257.03 464.61 263.07 464.15 269.06 C 462.08 280.10 456.49 290.58 447.91 297.93 C 425.62 318.71 386.67 317.56 365.93 295.07 C 352.82 282.41 347.82 262.00 353.76 244.76 C 356.40 237.25 361.60 231.02 364.59 223.67 C 374.05 218.44 382.51 210.90 393.41 208.69 Z" />
<path fill="#fefefe" d=" M 398.19 216.76 C 404.03 215.19 410.19 215.18 416.09 216.48 C 412.05 224.18 411.76 233.04 410.25 241.43 C 405.49 241.07 400.94 242.40 396.47 243.82 C 391.57 236.89 382.61 235.48 375.90 231.04 C 374.74 230.26 374.55 228.85 374.16 227.63 C 380.88 221.67 389.74 219.17 398.19 216.76 Z" />
<path fill="#fefefe" d=" M 421.94 222.20 C 423.29 217.27 429.67 219.26 432.80 221.28 C 441.14 226.90 449.01 234.25 453.08 243.59 C 448.41 243.53 443.50 243.81 439.41 246.33 C 435.40 248.77 431.28 251.04 426.90 252.75 C 424.63 250.13 422.46 247.38 419.52 245.48 C 417.32 244.44 418.64 241.77 418.65 239.96 C 419.93 234.07 419.94 227.91 421.94 222.20 Z" />
<path fill="#070707" d=" M 754.69 220.93 C 767.04 218.63 780.51 219.16 791.77 225.22 C 797.78 228.27 802.97 232.63 808.31 236.69 C 814.05 241.09 817.03 247.94 819.70 254.45 C 824.26 265.76 824.56 278.77 820.19 290.19 C 812.60 309.01 794.21 323.03 774.04 325.30 C 767.59 325.48 761.03 325.94 754.67 324.64 C 730.61 320.50 710.42 298.67 709.60 274.04 C 709.04 263.03 712.73 252.09 719.26 243.28 C 727.66 231.62 740.78 223.97 754.69 220.93 Z" />
<path fill="#fefefe" d=" M 759.19 228.77 C 764.71 228.36 770.36 227.63 775.83 228.83 C 784.90 231.48 794.03 235.08 801.06 241.61 C 798.87 244.76 795.26 246.38 791.84 247.81 C 786.61 249.81 782.42 253.62 777.85 256.72 C 773.50 255.28 769.01 254.31 764.46 253.78 C 762.99 248.27 763.67 242.49 762.54 236.92 C 761.72 234.09 760.14 231.55 759.19 228.77 Z" />
<path fill="#fefefe" d=" M 704.03 229.32 C 705.15 230.24 706.27 231.18 707.40 232.12 C 705.62 234.90 703.74 237.61 702.13 240.49 C 700.54 240.35 698.96 240.19 697.39 240.02 C 699.50 236.39 701.69 232.80 704.03 229.32 Z" />
<path fill="#fefefe" d=" M 741.72 234.66 C 744.52 233.21 747.68 231.34 750.90 231.73 C 756.21 239.03 753.47 248.62 756.72 256.66 C 753.14 258.88 750.18 261.89 747.04 264.68 C 738.58 261.22 730.90 254.43 721.18 255.30 C 725.60 246.40 733.29 239.68 741.72 234.66 Z" />
<path fill="#fefefe" d=" M 363.41 241.33 C 364.28 238.58 366.42 236.57 368.67 234.92 C 373.97 240.81 382.01 242.40 388.47 246.54 C 390.21 247.59 391.18 249.77 390.67 251.76 C 389.77 256.10 387.37 260.61 383.01 262.24 C 375.03 263.25 367.26 259.54 359.34 261.51 C 359.34 254.60 361.12 247.81 363.41 241.33 Z" />
<path fill="#fefefe" d=" M 496.04 249.35 C 501.99 247.21 507.18 243.48 512.99 241.01 C 516.92 244.85 521.17 248.35 525.09 252.20 C 522.78 257.78 517.74 262.24 516.99 268.38 C 527.59 273.47 537.72 279.44 548.15 284.87 C 551.16 279.95 554.22 275.06 557.45 270.28 C 563.30 270.69 568.90 272.59 574.64 273.65 C 574.77 279.64 574.57 285.63 574.67 291.62 C 582.44 291.82 590.22 291.57 598.00 291.84 C 602.49 292.36 607.02 292.38 611.54 292.27 C 611.36 286.08 611.76 279.89 611.61 273.70 C 617.34 273.18 622.65 269.67 628.48 270.45 C 632.20 275.18 635.02 280.60 638.10 285.77 C 642.48 284.08 646.54 281.69 650.74 279.60 C 656.72 276.24 663.23 273.71 668.66 269.43 C 670.20 268.49 668.87 266.71 668.49 265.52 C 666.14 260.33 662.95 255.57 659.57 250.99 C 663.26 247.92 666.48 244.30 670.27 241.35 C 675.46 242.30 679.60 246.30 684.59 248.06 C 683.65 252.86 681.18 257.55 681.30 262.45 C 685.39 264.13 690.32 264.38 694.26 266.88 C 694.23 269.99 694.10 273.09 693.74 276.17 C 689.17 276.77 684.72 278.00 680.23 278.97 C 681.61 287.62 684.94 295.87 686.75 304.45 C 691.27 303.52 695.77 302.24 700.42 302.15 C 702.04 304.94 703.72 307.70 705.67 310.28 C 702.63 313.68 698.24 315.79 696.15 320.00 C 701.24 325.45 706.72 330.52 711.99 335.79 C 704.69 334.05 697.64 331.50 690.47 329.35 C 680.05 325.58 669.23 323.08 658.53 320.26 C 643.50 315.79 628.70 310.55 613.53 306.58 C 607.39 304.65 601.23 302.68 594.90 301.46 C 589.23 300.35 583.64 302.33 578.42 304.32 C 562.34 308.88 546.33 313.80 529.92 317.05 C 515.96 320.55 502.16 324.66 488.29 328.52 C 472.00 332.04 455.99 336.74 439.89 340.99 C 427.54 345.42 414.37 346.83 401.98 351.09 C 383.82 357.39 364.92 361.12 346.42 366.29 C 346.45 373.72 346.31 381.15 346.44 388.59 C 351.84 389.38 357.31 389.19 362.75 389.28 C 364.18 393.59 367.00 397.82 371.49 399.32 C 376.82 399.80 382.19 399.41 387.54 399.56 C 387.54 420.10 384.72 440.48 384.10 461.00 C 383.42 473.03 383.30 485.07 382.44 497.08 C 382.32 505.08 380.29 512.99 380.88 521.01 C 381.26 526.21 384.39 530.52 387.16 534.73 C 382.04 534.70 376.63 534.56 371.89 536.79 C 367.80 538.91 367.41 544.14 367.55 548.21 C 360.45 548.38 353.33 547.88 346.25 548.46 L 345.73 549.13 C 345.67 553.91 345.77 558.70 345.78 563.48 C 355.53 563.63 365.24 564.43 375.00 564.18 C 403.33 564.30 431.66 564.72 460.00 564.64 C 467.00 564.72 474.02 564.49 481.00 565.19 C 508.67 565.44 536.34 565.57 564.02 565.65 C 571.01 565.72 578.01 565.58 584.99 566.19 C 611.66 566.48 638.33 566.51 665.01 566.75 C 684.33 567.76 703.70 567.21 723.04 567.48 C 745.70 567.36 768.33 568.53 790.99 568.29 C 805.07 568.17 819.15 568.68 833.22 568.56 C 833.34 563.52 833.24 558.49 833.48 553.46 C 826.46 553.05 819.43 553.15 812.41 552.67 C 812.03 549.61 811.95 546.37 810.42 543.62 C 809.29 541.61 807.03 540.76 805.01 539.98 C 801.44 538.89 797.80 538.08 794.30 536.78 C 796.54 533.56 798.65 529.96 798.58 525.89 C 798.76 511.92 798.67 497.93 797.78 483.99 C 797.56 465.32 796.30 446.69 796.14 428.02 C 795.59 420.23 795.29 412.43 795.18 404.62 C 800.29 404.53 805.47 405.15 810.53 404.28 C 815.30 402.27 817.77 397.45 820.79 393.56 C 825.70 394.35 830.76 394.64 835.67 393.60 C 835.52 386.21 836.08 378.81 835.73 371.43 C 830.58 368.98 824.74 368.30 819.28 366.73 C 805.51 362.72 791.71 358.83 777.86 355.13 C 771.91 352.65 765.61 351.29 759.46 349.47 C 760.32 346.61 760.29 343.27 762.06 340.79 C 766.13 340.56 770.26 340.62 774.28 341.47 C 775.33 345.58 776.34 349.69 777.60 353.75 C 786.72 352.91 795.64 350.32 803.96 346.54 C 811.24 347.84 818.64 347.07 825.99 347.31 C 833.39 347.63 840.73 346.43 848.02 345.31 C 857.47 342.81 867.38 341.11 875.87 335.99 C 881.40 332.91 885.94 328.34 891.71 325.65 C 890.99 331.72 889.40 337.66 889.16 343.79 C 889.03 343.25 888.92 342.71 888.82 342.17 C 887.54 356.19 884.86 370.05 883.06 384.01 C 877.58 419.05 872.87 454.19 867.56 489.25 C 862.93 523.04 857.39 556.72 853.10 590.55 C 856.12 590.63 859.15 590.65 862.18 590.56 C 862.88 584.18 864.47 577.91 864.88 571.50 C 885.72 571.29 906.54 572.03 927.36 572.43 C 927.59 578.22 927.35 584.23 929.37 589.75 C 929.70 591.07 930.57 591.66 931.97 591.53 C 934.42 591.65 936.88 591.39 939.34 591.26 C 936.80 563.67 933.01 536.20 930.16 508.64 C 922.83 446.11 915.48 383.57 908.28 321.04 C 913.84 323.66 919.38 326.67 925.49 327.77 C 931.29 328.65 937.11 329.47 942.98 329.66 C 944.58 329.57 945.62 331.18 945.85 332.61 C 948.42 343.23 952.28 353.50 954.64 364.17 C 957.94 376.77 959.26 389.75 961.15 402.61 C 962.25 413.71 963.78 424.79 963.71 435.98 C 963.73 453.62 964.04 471.28 963.11 488.90 C 962.51 492.24 962.35 495.63 962.33 499.02 C 960.59 514.33 958.79 529.66 955.71 544.77 C 953.44 559.86 949.93 574.73 946.29 589.54 C 944.18 599.47 941.58 609.28 938.83 619.05 C 935.91 628.69 934.20 638.87 929.11 647.69 C 920.16 646.64 911.78 643.12 903.15 640.75 C 891.38 637.67 879.71 634.24 867.84 631.57 C 850.89 628.25 834.18 623.61 816.98 621.64 C 806.60 620.39 796.51 617.28 786.07 616.56 C 774.73 616.29 763.63 613.80 752.41 612.40 C 741.03 610.42 729.48 609.94 717.98 609.18 C 710.01 608.26 702.00 607.65 694.05 606.65 C 687.36 606.39 680.65 606.80 673.97 606.29 C 664.99 605.36 656.06 604.11 647.03 603.74 C 622.35 603.81 597.68 603.10 573.00 603.18 C 557.00 602.92 541.01 603.72 525.01 603.60 C 516.99 603.43 509.02 604.48 501.01 604.38 C 478.97 605.18 457.01 607.30 435.01 608.85 C 403.11 612.66 371.11 615.94 339.48 621.70 C 311.61 628.13 283.31 632.80 255.87 640.98 C 249.20 615.04 240.87 589.49 235.82 563.14 C 234.63 555.90 233.31 548.68 231.81 541.50 C 230.45 526.30 227.26 511.31 226.40 496.05 C 224.62 486.46 226.18 476.60 224.62 466.99 C 224.16 457.34 224.48 447.66 224.45 438.00 C 225.60 427.91 225.81 417.74 226.70 407.63 C 227.35 404.45 227.46 401.20 227.53 397.96 C 227.78 398.55 228.03 399.15 228.28 399.75 C 227.91 391.75 230.22 384.00 231.36 376.15 C 235.09 358.04 240.80 340.44 245.70 322.63 C 255.03 322.78 264.45 322.29 273.55 320.16 C 278.50 319.17 282.78 316.36 287.53 314.77 C 283.59 339.33 280.75 364.06 277.12 388.66 C 268.25 453.94 259.12 519.18 250.22 584.45 C 253.88 584.82 257.57 584.87 261.25 584.65 C 261.80 578.26 262.75 571.92 263.71 565.59 C 277.14 565.47 290.57 565.69 304.00 565.67 C 311.39 565.76 318.83 565.37 326.18 566.39 C 326.45 572.74 327.79 578.97 328.42 585.29 C 331.65 584.85 336.13 586.89 338.35 583.98 C 337.60 572.95 335.54 562.03 334.44 551.03 C 330.67 522.03 327.10 493.01 323.23 464.03 C 322.48 460.05 322.19 456.00 322.47 451.96 C 322.15 453.22 321.88 454.51 321.47 455.76 C 322.01 447.78 319.33 439.96 320.64 431.96 C 320.33 434.67 320.18 437.40 319.92 440.12 C 319.04 427.01 316.55 414.08 315.21 401.01 C 311.54 373.87 308.03 346.69 304.25 319.57 C 309.42 323.15 313.95 327.66 319.58 330.55 C 332.53 336.97 346.67 340.69 360.99 342.37 C 370.00 342.56 379.01 342.64 388.02 342.56 C 392.63 342.64 397.03 341.11 401.49 340.16 C 401.49 337.70 401.26 335.19 399.62 333.23 C 398.33 331.94 398.51 330.18 398.59 328.52 C 402.96 328.35 407.33 328.36 411.71 328.40 C 412.73 332.55 414.00 336.63 414.81 340.83 C 417.07 340.73 419.36 340.67 421.59 340.23 C 427.96 338.59 434.55 337.41 440.39 334.22 C 440.80 330.24 439.09 326.55 438.17 322.77 C 441.67 321.17 444.94 318.14 448.96 318.33 C 452.10 320.61 454.80 323.45 457.99 325.69 C 462.65 323.80 466.06 320.02 469.67 316.67 C 472.45 314.04 475.26 311.41 477.64 308.39 C 474.56 305.38 471.40 302.47 468.40 299.41 C 470.32 296.40 472.11 293.31 473.82 290.17 C 478.39 290.89 482.79 292.41 487.29 293.51 C 489.50 286.45 491.01 279.19 493.22 272.13 C 493.67 270.75 493.60 269.28 493.66 267.85 C 489.64 266.91 485.58 266.22 481.56 265.31 C 481.55 261.64 481.44 257.98 481.23 254.32 C 485.78 253.41 490.26 252.19 494.78 251.15 C 494.60 248.67 493.99 246.26 493.34 243.88 C 494.27 245.68 495.15 247.52 496.04 249.35 Z" />
<path fill="#fefefe" d=" M 803.78 250.67 C 804.93 249.68 806.85 248.23 808.19 249.79 C 813.03 257.15 816.19 265.73 815.55 274.66 C 808.33 273.68 801.23 275.86 794.03 275.87 C 791.34 275.95 789.00 274.41 786.58 273.49 C 786.46 269.72 784.90 266.28 783.46 262.88 C 788.78 256.54 797.85 256.15 803.78 250.67 Z" />
<path fill="#fefefe" d=" M 405.26 249.93 C 412.66 247.53 422.12 255.42 419.29 263.28 C 415.62 272.58 400.34 271.93 396.55 263.02 C 396.50 260.58 395.83 257.72 397.46 255.66 C 399.35 252.96 402.15 250.98 405.26 249.93 Z" />
<path fill="#fefefe" d=" M 428.56 260.70 C 435.46 259.63 440.72 254.64 447.25 252.60 C 450.27 252.19 453.34 252.41 456.37 252.62 C 457.99 264.92 454.61 277.97 446.51 287.47 C 445.21 288.66 443.86 290.14 442.04 290.41 C 439.41 289.38 436.72 287.84 435.83 284.98 C 433.44 278.98 430.14 273.33 425.18 269.08 C 426.25 266.27 427.35 263.46 428.56 260.70 Z" />
<path fill="#fefefe" d=" M 761.42 263.62 C 766.17 262.86 772.09 262.37 775.59 266.40 C 780.29 270.76 778.38 279.12 772.67 281.67 C 766.15 284.41 755.64 282.18 754.68 273.94 C 753.51 269.12 757.22 265.18 761.42 263.62 Z" />
<path fill="#fefefe" d=" M 718.36 264.59 C 722.34 264.32 726.58 263.84 730.31 265.60 C 736.14 268.11 741.45 271.81 747.65 273.45 C 747.70 276.14 748.07 278.80 748.60 281.43 C 746.20 283.73 743.36 285.81 742.15 289.03 C 740.36 292.99 739.24 297.85 735.23 300.22 C 733.51 301.34 730.72 302.96 729.02 301.03 C 723.63 295.46 720.34 288.21 718.19 280.86 C 716.43 275.57 717.72 269.96 718.36 264.59 Z" />
<path fill="#fefefe" d=" M 378.99 270.83 C 382.87 270.83 387.11 271.06 390.25 268.37 C 392.88 271.76 398.29 274.65 396.60 279.69 C 395.01 284.09 390.57 286.29 387.55 289.58 C 385.18 291.84 383.84 294.91 383.10 298.06 C 373.80 293.73 367.31 285.26 362.33 276.58 C 360.97 274.53 361.42 272.00 361.30 269.70 C 367.27 268.98 373.03 271.10 378.99 270.83 Z" />
<path fill="#fefefe" d=" M 416.47 277.23 C 418.35 276.37 421.12 275.26 422.63 277.36 C 426.64 281.81 426.92 288.50 431.09 292.92 C 432.59 294.38 434.28 295.64 435.86 297.03 C 430.24 301.40 423.16 303.64 416.07 303.71 C 407.42 303.90 398.55 303.73 390.18 301.36 C 392.07 294.56 399.19 291.49 402.70 285.75 C 403.69 283.76 404.16 281.57 404.71 279.44 C 408.65 278.86 412.82 279.04 416.47 277.23 Z" />
<path fill="#fefefe" d=" M 784.13 282.04 C 793.43 287.71 804.16 281.65 814.13 283.66 C 811.19 295.72 801.30 304.91 790.94 311.04 C 789.12 305.45 785.13 300.99 780.77 297.22 C 778.89 295.28 776.26 292.61 777.74 289.71 C 779.20 286.68 781.91 284.50 784.13 282.04 Z" />
<path fill="#fefefe" d=" M 214.02 367.84 C 223.73 340.93 233.56 313.88 247.76 288.94 C 243.23 300.41 238.37 311.75 234.09 323.31 C 230.42 335.38 226.35 347.35 223.70 359.71 C 218.72 385.86 215.75 412.40 214.41 438.96 C 214.82 454.32 213.88 469.73 215.21 485.05 C 215.48 494.88 217.31 504.60 217.59 514.45 C 220.22 534.27 223.62 553.98 227.30 573.64 C 229.30 584.65 232.67 595.35 234.98 606.30 C 237.66 619.19 242.67 631.43 245.60 644.26 C 237.99 646.82 230.31 649.18 222.68 651.68 C 221.88 647.90 221.13 644.09 221.28 640.22 C 221.10 640.80 220.93 641.40 220.75 642.00 C 218.26 630.75 214.28 619.91 211.63 608.71 C 208.91 599.81 207.85 590.54 205.71 581.51 C 205.05 571.53 202.88 561.73 201.51 551.83 C 200.53 541.53 198.96 531.29 197.60 521.04 C 197.09 499.36 197.23 477.68 197.57 456.00 C 199.01 441.93 200.44 427.84 202.71 413.86 C 205.78 398.36 209.34 382.93 214.02 367.84 Z" />
<path fill="#fefefe" d=" M 752.17 288.76 C 755.03 287.54 757.65 289.63 760.26 290.53 C 763.04 291.85 766.18 291.48 769.18 291.57 C 769.69 296.18 772.07 300.42 775.50 303.50 C 778.82 306.57 782.33 309.78 783.65 314.29 C 776.21 317.74 767.94 316.42 760.03 316.47 C 752.14 316.25 744.60 313.15 738.13 308.78 C 745.78 304.65 747.10 295.15 752.17 288.76 Z" />
<path fill="#fefefe" d=" M 944.29 296.93 C 955.37 320.67 965.86 344.76 974.17 369.63 C 979.34 385.70 982.55 402.28 985.52 418.87 C 988.08 435.16 990.20 451.53 990.77 468.01 C 991.97 477.63 991.10 487.34 991.41 497.00 C 990.70 522.94 987.86 548.85 982.91 574.34 C 977.32 602.85 969.82 630.94 962.16 658.96 C 954.53 657.30 947.40 653.89 940.00 651.45 C 940.47 647.46 941.22 643.50 942.63 639.73 C 946.63 626.39 951.05 613.17 954.74 599.74 C 963.51 563.47 970.37 526.64 973.05 489.38 C 973.93 483.93 973.14 478.37 974.17 472.94 C 974.99 446.94 974.24 420.85 970.75 395.06 C 966.23 361.39 957.42 328.26 944.29 296.93 Z" />
<path fill="#aeaeae" d=" M 875.28 311.98 C 878.37 309.38 882.32 308.48 886.28 308.30 C 882.89 310.19 879.21 311.81 875.28 311.98 Z" />
<path fill="#aeaeae" d=" M 247.83 313.98 C 252.31 311.66 257.36 313.73 262.11 313.72 C 257.42 314.73 252.45 316.05 247.83 313.98 Z" />
<path fill="#aeaeae" d=" M 367.81 317.38 C 369.19 317.84 370.57 318.29 371.97 318.70 C 370.30 320.03 368.91 321.76 367.02 322.79 C 363.17 323.11 359.30 323.20 355.46 323.64 C 355.01 323.67 354.11 323.72 353.66 323.75 C 357.06 321.26 361.38 322.06 365.30 322.13 C 367.85 322.21 367.65 319.14 367.81 317.38 Z" />
<path fill="#fefefe" d=" M 503.47 340.12 C 532.65 332.34 561.92 324.84 591.00 316.69 C 592.57 316.25 594.26 316.33 595.83 316.79 C 616.97 323.04 638.02 329.63 659.19 335.79 C 684.09 343.05 709.00 350.28 733.72 358.10 C 740.41 361.56 747.92 362.69 755.03 364.99 C 762.47 367.29 770.16 368.77 777.42 371.63 C 782.85 373.78 788.63 374.89 794.05 377.07 C 786.84 379.05 779.31 378.37 771.95 377.98 C 764.63 377.36 757.31 378.34 749.99 378.22 C 742.59 378.12 735.19 378.15 727.80 378.49 C 718.20 378.14 708.57 378.79 699.02 377.70 C 638.00 377.72 577.02 376.33 516.00 376.33 C 502.50 375.19 488.93 376.21 475.41 375.48 C 466.74 375.13 458.05 375.62 449.39 375.13 C 445.96 374.57 442.49 374.18 439.02 374.21 C 425.99 374.29 412.96 374.26 399.93 374.24 C 396.89 374.38 394.00 373.35 391.48 371.73 C 393.03 370.78 394.59 369.84 396.20 369.00 C 410.00 365.21 423.86 361.55 437.64 357.67 C 459.70 352.23 481.56 346.10 503.47 340.12 Z" />
<path fill="#aeaeae" d=" M 337.04 319.34 C 341.47 320.66 346.67 319.84 350.48 322.81 C 345.84 322.40 341.47 320.67 337.04 319.34 Z" />
<path fill="#fefefe" d=" M 367.02 322.79 C 368.91 321.76 370.30 320.03 371.97 318.70 C 373.71 320.57 372.32 323.08 372.07 325.24 C 366.49 325.42 360.89 324.98 355.46 323.64 C 359.30 323.20 363.17 323.11 367.02 322.79 Z" />
<path fill="#aeaeae" d=" M 318.90 321.15 C 324.51 322.61 329.85 324.89 335.35 326.68 C 346.90 330.88 359.15 332.49 371.30 333.67 C 362.90 334.16 354.49 333.36 346.27 331.68 C 336.69 329.67 326.88 327.09 318.90 321.15 Z" />
<path fill="#aeaeae" d=" M 845.24 326.23 C 849.52 325.52 853.85 325.23 858.20 325.28 C 849.76 327.37 841.09 329.21 832.38 329.07 C 836.22 326.65 840.92 326.94 845.24 326.23 Z" />
<path fill="#fefefe" d=" M 855.68 333.98 C 862.65 332.17 869.10 328.81 876.07 326.98 C 869.40 330.99 861.96 333.31 854.45 335.13 C 836.96 340.23 818.55 338.85 800.65 337.47 C 800.42 336.16 800.23 334.86 800.07 333.55 C 803.31 332.31 806.09 329.16 809.70 329.35 C 813.19 331.03 815.87 334.35 816.83 338.14 C 829.93 339.07 842.96 336.88 855.68 333.98 Z" />
<path fill="#fefefe" d=" M 716.27 336.47 C 719.26 334.18 722.17 331.79 725.03 329.33 C 728.27 330.84 731.46 332.48 734.74 333.92 C 734.48 336.31 734.05 338.67 733.58 341.02 C 727.58 340.51 722.07 337.86 716.27 336.47 Z" />
<path fill="#aeaeae" d=" M 733.72 358.10 C 743.21 359.88 752.34 363.18 761.65 365.70 C 778.18 370.22 794.49 375.46 811.02 379.98 C 807.69 380.19 804.34 380.17 801.01 379.97 C 776.63 378.58 752.16 380.26 727.80 378.49 C 735.19 378.15 742.59 378.12 749.99 378.22 C 757.31 378.34 764.63 377.36 771.95 377.98 C 779.31 378.37 786.84 379.05 794.05 377.07 C 788.63 374.89 782.85 373.78 777.42 371.63 C 770.16 368.77 762.47 367.29 755.03 364.99 C 747.92 362.69 740.41 361.56 733.72 358.10 Z" />
<path fill="#aeaeae" d=" M 287.75 389.07 C 288.69 382.04 289.00 374.92 290.22 367.93 C 290.44 374.98 290.49 382.04 290.48 389.10 C 290.53 390.78 290.09 392.42 289.57 394.02 C 288.72 392.47 287.31 390.98 287.75 389.07 Z" />
<path fill="#aeaeae" d=" M 299.77 368.97 C 300.23 374.38 301.26 379.71 302.12 385.06 C 302.52 387.15 302.36 389.28 301.72 391.30 C 301.23 391.34 300.27 391.42 299.78 391.45 C 299.93 383.96 299.79 376.46 299.77 368.97 Z" />
<path fill="#aeaeae" d=" M 371.03 375.23 C 379.42 373.15 387.69 370.52 396.20 369.00 C 394.59 369.84 393.03 370.78 391.48 371.73 C 394.00 373.35 396.89 374.38 399.93 374.24 C 412.96 374.26 425.99 374.29 439.02 374.21 C 442.49 374.18 445.96 374.57 449.39 375.13 C 423.28 375.67 397.15 374.86 371.03 375.23 Z" />
<path fill="#aeaeae" d=" M 894.49 374.25 C 894.81 378.48 894.29 382.75 894.49 387.01 C 894.24 390.71 895.28 394.80 893.11 398.10 C 892.36 396.48 891.37 394.82 891.90 392.98 C 892.94 386.76 893.60 380.49 894.49 374.25 Z" />
<path fill="#aeaeae" d=" M 904.25 399.83 C 903.35 392.17 904.30 384.47 904.47 376.79 C 905.04 380.51 905.32 384.26 905.94 387.97 C 906.47 391.95 907.22 396.58 904.25 399.83 Z" />
<path fill="#fefefe" d=" M 443.67 390.23 C 473.11 390.09 502.56 390.59 532.00 390.65 C 544.33 390.80 556.68 390.57 569.00 391.23 C 596.00 391.50 623.00 391.61 650.00 391.73 C 679.30 393.23 708.68 391.93 738.00 392.98 C 739.59 397.43 742.47 402.28 747.48 403.26 C 752.46 403.69 757.48 403.47 762.48 403.55 C 762.59 414.88 761.60 426.17 760.48 437.43 C 760.00 446.35 759.31 455.25 758.56 464.16 C 758.58 485.50 754.80 506.67 755.76 528.03 C 756.68 531.97 759.25 535.25 761.25 538.70 C 757.51 538.79 753.78 538.43 750.05 538.66 C 747.24 539.66 744.86 541.63 742.97 543.89 C 741.10 546.08 741.84 549.11 741.61 551.74 C 723.41 551.34 705.18 551.86 687.00 550.99 C 662.67 550.78 638.33 550.57 614.00 550.60 C 600.34 550.16 586.63 550.92 572.99 549.79 C 547.33 549.58 521.66 549.78 495.99 549.48 C 476.51 549.34 457.03 548.97 437.54 549.14 C 437.43 546.43 437.61 543.71 437.31 541.02 C 433.61 534.07 424.40 535.76 417.86 535.63 C 420.58 532.42 423.80 529.17 424.65 524.91 C 424.87 517.60 424.45 510.29 424.22 502.99 C 423.08 494.03 423.90 484.95 422.72 475.99 C 422.30 455.64 420.69 435.35 420.26 415.00 C 419.86 410.09 419.37 405.19 419.28 400.26 C 424.51 400.15 429.76 400.46 434.99 400.15 C 439.63 399.00 442.83 394.80 443.67 390.23 Z" />
<path fill="#fefefe" d=" M 397.36 399.79 C 401.43 399.80 405.51 399.80 409.59 399.90 C 409.29 419.95 412.30 439.86 412.31 459.90 C 412.88 465.91 412.57 471.95 412.42 477.98 C 413.24 486.96 413.75 495.96 413.82 504.98 C 414.14 512.29 415.79 520.30 412.06 527.04 C 405.74 533.31 393.06 530.12 391.42 521.05 C 391.23 510.55 392.76 500.11 392.60 489.61 C 393.85 480.11 393.04 470.48 394.28 460.97 C 394.44 449.89 395.38 438.86 395.75 427.79 C 396.97 418.50 396.05 409.06 397.36 399.79 Z" />
<path fill="#aeaeae" d=" M 300.81 405.40 C 302.06 404.82 303.32 404.27 304.59 403.74 C 304.57 405.58 304.50 407.42 304.38 409.26 C 303.11 408.05 301.91 406.77 300.81 405.40 Z" />
<path fill="#fefefe" d=" M 772.77 403.61 C 776.70 403.69 780.63 403.65 784.56 403.97 C 784.50 426.01 787.37 447.95 787.25 470.01 C 786.99 487.59 791.52 505.20 788.55 522.73 C 787.62 527.08 785.44 532.19 780.76 533.50 C 776.65 533.82 771.87 534.49 768.61 531.36 C 764.31 526.77 764.99 519.99 765.59 514.23 C 766.37 509.68 766.58 505.06 767.17 500.49 C 768.06 492.38 766.36 484.21 767.58 476.13 C 768.78 469.51 769.51 462.76 769.59 456.04 C 768.25 444.97 770.87 434.04 771.77 423.06 C 772.80 416.63 772.64 410.10 772.77 403.61 Z" />
<path fill="#aeaeae" d=" M 889.46 408.90 C 890.58 409.88 891.69 410.87 892.80 411.88 C 891.66 412.95 890.52 414.03 889.37 415.09 C 889.35 413.02 889.38 410.96 889.46 408.90 Z" />
<path fill="#070707" d=" M 470.23 416.18 C 476.93 412.58 484.72 413.81 492.00 413.72 C 498.01 413.60 503.98 414.36 509.99 414.28 C 517.44 414.54 525.22 413.43 532.27 416.48 C 539.14 419.17 546.29 424.95 546.43 432.94 C 546.40 440.45 546.34 447.97 546.31 455.48 C 539.21 455.50 532.11 455.45 525.01 455.32 C 520.86 455.23 516.65 455.65 512.60 454.58 C 512.15 448.46 514.69 440.45 508.86 436.17 C 502.53 430.71 491.28 433.28 488.42 441.20 C 488.07 453.12 488.34 465.07 488.21 477.00 C 487.56 485.62 487.64 494.29 487.76 502.92 C 489.68 508.21 495.12 512.59 500.96 511.65 C 506.06 511.61 511.07 508.02 512.20 502.98 C 512.50 495.50 512.40 488.00 512.54 480.51 C 505.84 480.48 499.13 480.67 492.44 480.31 C 492.48 474.68 492.46 469.05 492.46 463.42 C 510.41 463.28 528.37 463.51 546.31 463.87 C 546.26 475.26 546.38 486.65 545.79 498.02 C 545.38 505.64 546.75 513.94 542.74 520.85 C 538.48 527.28 530.70 530.99 523.04 530.75 C 507.11 530.56 491.16 530.90 475.24 530.43 C 467.33 528.15 459.09 522.47 457.34 513.94 C 457.20 486.27 457.44 458.60 457.59 430.93 C 458.88 424.24 463.99 418.74 470.23 416.18 Z" />
<path fill="#070707" d=" M 559.88 421.88 C 565.85 415.87 574.82 414.11 583.01 414.58 C 590.67 414.93 598.36 414.40 606.00 415.23 C 615.25 415.42 624.51 415.17 633.76 415.50 C 633.69 422.25 633.45 429.00 633.49 435.75 C 618.59 436.07 603.70 435.25 588.81 435.51 C 588.77 443.91 588.75 452.32 588.70 460.72 C 588.71 461.46 588.72 462.92 588.73 463.65 C 603.26 463.50 617.78 463.93 632.30 464.24 L 633.38 464.27 C 633.23 470.98 633.17 477.70 633.22 484.43 C 618.30 484.42 603.37 484.19 588.44 484.21 C 588.39 493.39 588.30 502.57 588.36 511.75 C 598.57 512.01 608.82 511.27 619.00 512.27 C 623.58 512.42 628.17 512.33 632.76 512.46 C 632.84 518.90 632.63 525.33 632.58 531.77 C 627.08 532.78 621.52 531.51 615.99 531.75 C 601.68 531.57 587.37 531.70 573.07 531.39 C 563.52 529.87 554.49 522.07 553.77 512.06 C 553.58 486.34 554.51 460.65 554.25 434.93 C 553.82 429.99 556.31 425.18 559.88 421.88 Z" />
<path fill="#070707" d=" M 653.49 418.45 C 661.66 414.07 671.16 416.04 680.00 415.81 C 690.40 416.19 700.90 414.94 711.23 416.62 C 718.62 417.79 725.56 422.49 728.58 429.47 C 730.70 433.28 730.67 437.75 730.56 441.99 C 730.32 448.59 730.37 455.19 730.36 461.80 C 719.32 461.86 708.27 461.94 697.24 461.56 C 696.82 454.95 698.37 448.09 696.15 441.69 C 692.41 434.09 680.74 432.91 675.30 439.25 C 673.08 441.21 671.95 444.03 671.93 446.97 C 671.59 465.32 671.76 483.68 671.33 502.03 C 671.38 511.23 683.53 517.15 690.87 511.77 C 693.80 509.81 696.82 506.85 696.58 503.04 C 696.70 497.96 696.57 492.88 696.59 487.81 C 701.39 487.82 706.21 487.58 711.00 488.09 C 717.40 488.48 723.84 487.98 730.25 488.53 C 730.21 492.69 729.68 496.82 729.78 500.99 C 729.57 506.55 730.25 512.24 728.77 517.69 C 726.08 526.20 717.58 531.94 708.90 532.66 C 693.91 532.79 678.92 532.42 663.93 532.49 C 653.59 533.18 644.32 525.02 641.41 515.49 C 640.10 509.08 641.21 502.49 640.81 496.00 C 641.68 475.33 640.72 454.60 641.74 433.94 C 642.93 427.31 647.19 421.14 653.49 418.45 Z" />
<path fill="#aeaeae" d=" M 288.15 418.22 C 289.57 417.03 291.33 419.48 289.89 420.54 C 288.48 421.67 286.67 419.24 288.15 418.22 Z" />
<path fill="#aeaeae" d=" M 903.46 423.27 C 903.90 423.43 904.77 423.76 905.20 423.93 C 905.39 424.82 905.58 425.72 905.79 426.63 C 905.19 426.67 903.98 426.75 903.38 426.79 C 903.40 425.61 903.42 424.43 903.46 423.27 Z" />
<path fill="#aeaeae" d=" M 281.77 429.31 C 282.70 429.30 283.63 429.30 284.57 429.30 C 284.92 429.83 285.61 430.89 285.96 431.43 C 284.55 432.28 283.11 433.09 281.67 433.88 C 281.69 432.35 281.73 430.83 281.77 429.31 Z" />
<path fill="#aeaeae" d=" M 302.41 431.16 C 304.30 430.11 306.21 429.10 308.15 428.14 C 308.37 430.78 308.46 433.44 308.42 436.10 C 306.17 434.77 304.13 433.12 302.41 431.16 Z" />
<path fill="#fefefe" d=" M 885.67 433.99 C 887.42 435.20 889.14 436.46 890.81 437.81 C 888.96 439.29 887.11 440.77 885.14 442.06 C 885.13 439.36 885.39 436.67 885.67 433.99 Z" />
<path fill="#fefefe" d=" M 906.66 437.77 C 907.91 436.82 909.18 435.90 910.48 435.01 C 910.96 436.92 911.39 438.85 911.79 440.80 C 910.09 439.77 908.38 438.75 906.66 437.77 Z" />
<path fill="#aeaeae" d=" M 287.18 443.12 C 288.02 442.14 288.87 441.16 289.71 440.18 C 289.71 441.72 289.73 443.26 289.74 444.81 C 288.88 444.24 288.03 443.68 287.18 443.12 Z" />
<path fill="#565656" d=" M 893.16 448.39 C 895.06 448.89 893.91 451.98 892.13 451.31 C 890.14 450.77 891.37 447.82 893.16 448.39 Z" />
<path fill="#aeaeae" d=" M 903.17 448.22 C 904.39 446.90 906.57 449.06 905.07 450.20 C 903.77 451.57 901.71 449.43 903.17 448.22 Z" />
<path fill="#fefefe" d=" M 279.60 450.16 C 282.38 451.71 285.23 453.17 287.91 454.91 C 284.78 457.02 281.59 459.02 278.47 461.15 C 278.48 457.45 279.01 453.80 279.60 450.16 Z" />
<path fill="#fefefe" d=" M 304.11 455.66 C 306.03 453.85 308.21 452.36 310.53 451.11 C 311.11 454.06 311.37 457.07 311.43 460.08 C 309.00 458.58 306.56 457.11 304.11 455.66 Z" />
<path fill="#fefefe" d=" M 882.63 456.78 C 884.96 458.11 887.12 459.74 888.81 461.86 C 886.34 463.36 883.92 464.94 881.39 466.32 C 881.58 463.11 882.20 459.96 882.63 456.78 Z" />
<path fill="#fefefe" d=" M 905.79 461.72 C 908.29 460.19 910.84 458.71 913.38 457.22 C 913.91 460.80 914.54 464.38 914.58 468.02 C 911.58 466.00 908.74 463.78 905.79 461.72 Z" />
<path fill="#aeaeae" d=" M 588.70 460.72 C 594.05 462.15 599.39 463.84 605.01 463.31 C 614.09 463.97 623.39 461.97 632.30 464.24 C 617.78 463.93 603.26 463.50 588.73 463.65 C 588.72 462.92 588.71 461.46 588.70 460.72 Z" />
<path fill="#565656" d=" M 299.35 466.35 C 299.86 466.06 300.88 465.49 301.39 465.20 L 301.21 466.11 C 300.76 468.24 300.45 470.41 300.25 472.60 C 300.83 472.51 301.99 472.34 302.57 472.25 C 301.62 472.91 300.58 473.98 299.58 472.74 C 299.34 470.61 299.38 468.47 299.35 466.35 Z" />
<path fill="#fefefe" d=" M 282.59 471.28 C 284.94 469.68 287.31 468.11 289.68 466.56 C 289.70 469.46 289.74 472.36 289.66 475.26 C 287.26 474.01 284.92 472.66 282.59 471.28 Z" />
<path fill="#fefefe" d=" M 300.25 472.60 C 300.45 470.41 300.76 468.24 301.21 466.11 C 302.96 467.32 304.63 468.66 306.27 470.04 C 305.05 470.79 303.81 471.53 302.57 472.25 C 301.99 472.34 300.83 472.51 300.25 472.60 Z" />
<path fill="#fefefe" d=" M 887.18 475.24 C 888.88 473.71 890.84 472.49 892.80 471.29 C 892.86 474.19 892.83 477.09 892.73 480.00 C 890.95 478.40 887.57 477.85 887.18 475.24 Z" />
<path fill="#fefefe" d=" M 902.49 472.05 C 905.05 473.73 907.53 475.54 909.81 477.60 C 907.43 478.91 905.03 480.17 902.54 481.22 C 902.27 478.16 902.28 475.10 902.49 472.05 Z" />
<path fill="#fefefe" d=" M 303.80 483.50 C 306.80 481.47 309.89 479.57 313.07 477.83 C 313.37 477.95 313.96 478.19 314.26 478.31 C 314.90 482.16 315.39 486.05 315.80 489.94 C 311.72 487.93 307.86 485.53 303.80 483.50 Z" />
<path fill="#fefefe" d=" M 275.55 479.06 C 278.86 480.61 282.09 482.34 285.34 484.01 C 281.71 486.27 278.06 488.49 274.27 490.45 C 274.44 486.63 274.98 482.84 275.55 479.06 Z" />
<path fill="#fefefe" d=" M 879.07 483.09 C 882.13 485.22 885.12 487.47 888.04 489.79 C 884.38 491.67 880.68 493.48 877.01 495.34 C 877.29 491.19 878.26 487.15 879.07 483.09 Z" />
<path fill="#fefefe" d=" M 907.02 490.33 C 910.37 488.63 913.72 486.91 917.22 485.50 C 917.50 489.72 918.38 493.87 918.52 498.11 C 914.60 495.63 910.78 493.02 907.02 490.33 Z" />
<path fill="#fefefe" d=" M 281.08 500.05 C 284.03 498.18 286.89 496.18 289.73 494.14 C 289.79 497.46 289.72 500.78 289.49 504.10 C 286.67 502.77 283.88 501.40 281.08 500.05 Z" />
<path fill="#fefefe" d=" M 300.38 505.93 C 300.38 501.65 300.27 497.38 300.48 493.11 C 304.52 495.12 308.48 497.30 312.37 499.58 C 308.49 501.92 304.32 503.71 300.38 505.93 Z" />
<path fill="#fefefe" d=" M 879.81 505.78 C 883.99 503.49 888.24 501.33 892.53 499.26 C 892.57 503.50 892.51 507.74 892.35 511.99 C 887.98 510.31 883.97 507.88 879.81 505.78 Z" />
<path fill="#fefefe" d=" M 902.52 499.64 C 905.46 501.79 908.27 504.13 910.90 506.67 C 908.15 508.04 905.41 509.45 902.53 510.51 C 902.34 506.89 902.31 503.26 902.52 499.64 Z" />
<path fill="#fefefe" d=" M 271.69 507.02 C 276.67 508.94 281.28 511.64 286.01 514.07 C 280.73 516.64 275.62 519.57 270.33 522.14 C 270.18 517.04 271.52 512.09 271.69 507.02 Z" />
<path fill="#fefefe" d=" M 307.93 514.46 C 311.21 512.31 314.67 510.44 318.21 508.74 C 318.64 512.54 319.17 516.33 319.38 520.15 C 315.51 518.36 311.70 516.44 307.93 514.46 Z" />
<path fill="#fefefe" d=" M 873.78 513.89 C 877.43 515.95 880.91 518.32 884.66 520.23 C 880.61 522.13 876.65 524.24 872.49 525.87 C 872.92 521.88 873.50 517.90 873.78 513.89 Z" />
<path fill="#fefefe" d=" M 905.33 520.61 C 910.32 518.26 915.22 515.67 920.42 513.82 C 920.61 518.96 921.52 524.05 921.42 529.20 C 915.98 526.50 910.50 523.81 905.33 520.61 Z" />
<path fill="#fefefe" d=" M 277.15 530.25 C 281.40 528.30 285.49 526.03 289.67 523.95 C 289.83 528.01 289.70 532.07 289.35 536.12 C 285.34 534.05 281.25 532.14 277.15 530.25 Z" />
<path fill="#fefefe" d=" M 300.33 522.59 C 304.61 524.12 308.47 526.54 312.40 528.79 C 308.53 530.84 304.49 532.54 300.42 534.14 C 300.31 530.29 300.32 526.44 300.33 522.59 Z" />
<path fill="#fefefe" d=" M 878.77 534.05 C 883.41 532.26 887.78 529.83 892.42 528.04 C 892.55 532.36 892.51 536.69 892.13 541.01 C 887.65 538.73 883.11 536.58 878.77 534.05 Z" />
<path fill="#fefefe" d=" M 901.76 529.83 C 905.83 532.52 910.14 534.87 914.04 537.83 C 909.92 539.36 905.93 541.18 901.84 542.77 C 901.76 538.45 901.78 534.14 901.76 529.83 Z" />
<path fill="#fefefe" d=" M 304.58 543.93 C 310.52 541.46 316.15 538.28 322.17 536.00 C 322.54 541.43 323.49 546.80 323.76 552.23 C 317.37 549.45 311.18 546.17 304.58 543.93 Z" />
<path fill="#aeaeae" d=" M 791.79 539.59 C 792.36 538.55 792.96 537.54 793.56 536.52 L 794.30 536.78 C 797.80 538.08 801.44 538.89 805.01 539.98 C 800.64 539.16 796.19 539.33 791.79 539.59 Z" />
<path fill="#fefefe" d=" M 267.61 538.02 C 272.14 539.98 276.70 541.89 281.12 544.11 C 276.21 546.60 271.27 549.03 266.28 551.34 C 266.18 546.85 266.87 542.42 267.61 538.02 Z" />
<path fill="#fefefe" d=" M 869.91 541.02 C 875.52 543.75 881.04 546.70 886.43 549.87 C 880.23 552.19 874.17 554.84 868.08 557.40 C 868.08 551.88 869.52 546.51 869.91 541.02 Z" />
<path fill="#fefefe" d=" M 909.75 550.87 C 913.47 549.03 917.01 546.67 921.06 545.58 C 922.67 544.97 923.71 546.20 924.44 547.48 C 925.83 551.03 925.41 554.91 925.39 558.64 C 920.16 556.07 915.00 553.36 909.75 550.87 Z" />
<path fill="#aeaeae" d=" M 282.22 554.98 C 284.44 553.86 286.66 552.72 288.94 551.72 C 288.86 552.94 288.77 554.18 288.68 555.42 C 286.52 555.26 284.37 555.14 282.22 554.98 Z" />
<path fill="#aeaeae" d=" M 300.44 552.91 C 302.42 553.59 304.38 554.34 306.33 555.14 C 304.36 555.37 302.38 555.53 300.40 555.67 C 300.41 554.98 300.43 553.60 300.44 552.91 Z" />
<path fill="#aeaeae" d=" M 885.08 561.02 C 887.40 560.04 889.73 559.05 892.11 558.17 C 891.95 559.30 891.80 560.43 891.65 561.57 C 889.45 561.40 887.26 561.24 885.08 561.02 Z" />
<path fill="#aeaeae" d=" M 901.23 557.82 C 903.68 558.97 906.08 560.27 908.37 561.75 C 905.97 561.80 903.58 561.76 901.20 561.69 C 901.19 560.40 901.20 559.11 901.23 557.82 Z" />
<path fill="#070707" d=" M 345.82 570.51 C 372.53 569.71 399.28 570.59 426.00 570.69 C 453.63 570.65 481.24 571.37 508.86 571.57 C 530.57 571.98 552.30 571.41 574.00 572.06 C 600.66 572.40 627.33 572.72 654.00 572.77 C 667.67 572.57 681.32 573.65 695.00 573.43 C 710.66 573.53 726.33 573.36 741.99 573.73 C 772.21 574.83 802.48 574.23 832.71 574.82 C 833.64 579.95 832.68 585.14 832.74 590.31 C 809.81 590.46 786.90 589.59 763.97 589.60 C 742.32 589.33 720.66 589.36 699.00 589.25 C 677.03 588.31 655.00 588.50 633.01 588.34 C 623.00 588.17 612.98 588.61 603.01 587.76 C 570.66 587.41 538.30 587.46 505.95 587.21 C 498.33 586.37 490.65 586.76 483.00 586.61 C 457.33 586.48 431.66 586.44 405.99 586.20 C 386.16 585.01 366.25 586.19 346.42 585.33 L 345.75 584.87 C 345.66 580.08 345.60 575.29 345.82 570.51 Z" />
<path fill="#fefefe" d=" M 525.99 613.84 C 542.65 613.44 559.32 613.45 575.99 613.22 C 584.53 612.26 593.10 613.33 601.66 613.24 C 612.44 613.26 623.22 613.81 634.00 613.71 C 653.94 615.15 673.96 615.43 693.86 617.40 C 701.60 617.69 709.22 619.37 716.96 619.61 C 731.46 620.77 746.00 621.62 760.43 623.57 C 770.95 625.34 781.53 626.71 791.97 628.93 C 810.28 631.28 828.76 633.03 846.74 637.48 C 860.50 640.13 873.80 644.74 887.52 647.61 C 910.02 651.65 931.32 660.13 953.12 666.71 C 957.08 668.46 962.66 669.47 964.04 674.23 C 967.53 684.06 969.00 694.74 967.42 705.09 C 965.45 717.24 959.45 728.33 952.33 738.20 C 949.55 742.97 945.41 746.67 941.72 750.69 C 938.58 754.11 934.85 756.90 931.09 759.59 C 911.68 749.69 890.41 744.56 869.55 738.78 C 858.71 736.25 848.08 732.79 837.07 730.95 C 821.51 727.47 805.72 725.16 790.14 721.73 C 775.72 718.16 760.74 718.28 746.15 715.73 C 735.46 714.47 724.86 712.28 714.06 712.28 C 705.86 711.26 697.56 711.81 689.37 710.75 C 680.21 710.61 671.12 709.44 662.00 708.69 C 654.02 708.25 645.99 708.88 638.05 707.81 C 607.70 707.46 577.35 707.18 547.00 707.10 C 531.95 707.29 516.86 707.10 501.86 708.44 C 491.89 708.60 481.97 709.76 471.99 709.68 C 465.94 710.29 459.87 710.55 453.84 711.31 C 437.84 712.23 421.99 714.88 405.99 715.72 C 401.07 716.46 396.08 716.78 391.24 718.00 C 379.76 720.83 368.02 722.33 356.31 723.79 C 346.17 725.46 336.24 728.11 326.25 730.48 C 300.75 735.24 276.18 743.76 251.92 752.73 C 245.93 747.85 241.05 741.82 235.94 736.08 C 225.10 724.65 218.03 709.70 216.44 694.02 C 215.82 685.93 217.27 677.85 219.63 670.14 C 220.91 666.44 222.80 662.36 226.78 660.98 C 231.69 659.28 236.82 658.30 241.69 656.44 C 258.09 650.82 275.24 647.83 291.72 642.45 C 312.25 637.14 333.09 633.12 354.03 629.80 C 367.40 628.25 380.62 625.54 394.02 624.22 C 422.48 619.60 451.29 618.02 480.00 615.76 C 484.60 615.44 489.21 615.46 493.82 615.21 C 504.50 613.93 515.30 614.93 525.99 613.84 Z" />
<path fill="#070707" d=" M 536.04 637.13 C 540.38 632.09 547.49 629.65 554.07 630.21 C 560.24 629.98 566.23 634.63 567.33 640.75 C 567.77 643.99 567.78 647.27 567.90 650.54 C 564.02 650.57 560.15 650.52 556.27 650.51 C 555.55 647.35 556.56 642.54 552.73 641.20 C 548.03 638.67 542.70 645.59 546.56 649.35 C 552.62 654.80 561.94 656.18 566.51 663.40 C 569.24 666.91 568.80 671.58 568.31 675.72 C 567.14 682.89 560.48 688.96 553.07 688.60 C 547.68 688.35 541.47 689.86 536.99 685.98 C 532.70 681.94 531.87 675.53 532.30 669.92 C 536.33 669.43 540.38 669.21 544.42 668.72 C 544.65 671.48 543.97 674.65 545.97 676.93 C 549.30 680.95 557.64 677.43 556.29 672.07 C 555.63 667.47 550.48 666.02 547.01 663.98 C 541.33 661.63 534.90 658.20 533.54 651.61 C 533.40 646.68 532.39 641.11 536.04 637.13 Z" />
<path fill="#070707" d=" M 592.24 631.60 C 596.20 631.22 600.19 631.26 604.16 631.53 C 605.20 643.74 607.40 655.84 608.87 668.01 C 611.27 656.14 613.85 644.29 616.17 632.40 C 620.48 632.22 624.79 632.27 629.10 632.46 C 631.16 645.28 633.18 658.11 635.71 670.84 C 637.51 658.38 640.09 646.03 641.67 633.54 C 645.32 633.38 648.98 633.40 652.62 633.74 C 649.24 652.33 645.76 670.91 642.26 689.48 C 637.67 689.62 633.07 689.46 628.49 689.47 C 626.40 676.88 624.24 664.29 621.94 651.74 C 619.17 663.88 617.83 676.29 615.34 688.49 C 610.87 688.54 606.39 688.43 601.92 688.36 C 598.81 669.42 595.47 650.52 592.24 631.60 Z" />
<path fill="#070707" d=" M 512.26 632.36 C 516.33 631.58 520.53 631.52 524.61 632.32 C 524.41 645.88 524.38 659.44 524.25 673.00 C 524.14 678.15 524.58 683.34 523.75 688.45 C 519.76 688.56 515.82 689.21 511.83 689.38 C 512.02 670.37 512.41 651.37 512.26 632.36 Z" />
<path fill="#070707" d=" M 474.70 634.65 C 478.75 632.70 483.57 633.80 487.94 633.48 C 485.09 642.56 479.65 650.59 475.40 659.06 C 478.78 669.73 486.05 679.05 487.46 690.33 C 482.92 690.65 478.38 690.48 473.84 690.37 C 470.42 681.89 466.93 673.44 463.52 664.96 C 463.46 668.32 463.37 671.68 462.90 675.02 C 462.16 680.43 463.15 686.05 461.47 691.34 C 457.96 691.38 454.47 691.56 450.97 691.61 C 450.64 687.41 450.92 683.20 451.13 679.01 C 451.16 664.88 451.16 650.76 451.26 636.63 C 454.96 635.86 458.73 635.45 462.52 635.70 C 462.82 642.37 462.44 649.06 462.91 655.73 C 467.64 649.18 470.55 641.55 474.70 634.65 Z" />
<path fill="#070707" d=" M 668.49 634.84 C 674.65 633.95 681.32 634.25 687.02 636.98 C 693.26 639.94 695.16 647.62 694.70 653.96 C 694.26 663.50 695.23 673.17 693.33 682.59 C 692.36 687.11 689.31 692.46 684.09 692.48 C 677.92 692.40 671.35 693.16 665.65 690.26 C 660.33 687.16 658.68 680.63 658.31 674.90 C 658.13 666.25 658.67 657.60 658.54 648.94 C 658.26 642.81 662.40 636.38 668.49 634.84 Z" />
<path fill="#070707" d=" M 410.87 640.00 C 418.00 637.81 425.57 638.56 432.92 638.50 C 437.11 638.46 440.45 642.08 441.27 645.99 C 441.72 651.10 441.66 656.36 440.08 661.29 C 439.21 663.49 437.14 664.78 435.29 666.08 C 438.06 666.86 440.88 668.61 441.40 671.67 C 442.81 678.78 442.51 686.19 441.53 693.33 C 437.47 693.35 433.42 693.70 429.36 693.78 C 429.47 687.17 429.31 680.54 428.49 673.99 C 425.66 672.39 422.44 672.09 419.44 673.41 C 419.29 680.68 419.93 688.01 418.99 695.24 C 415.10 695.40 411.21 695.79 407.31 695.67 C 407.23 678.18 407.44 660.68 407.39 643.18 C 407.39 641.38 409.42 640.52 410.87 640.00 Z" />
<path fill="#070707" d=" M 703.59 638.36 C 711.10 638.15 718.74 638.13 726.04 640.16 C 731.25 641.35 736.63 644.67 738.26 650.01 C 738.33 654.28 738.56 658.63 737.91 662.86 C 737.47 665.91 734.65 667.57 732.34 669.15 C 734.86 671.13 737.68 673.46 737.78 676.97 C 738.33 683.71 738.48 690.51 738.37 697.29 C 734.05 696.89 727.67 697.63 725.46 693.01 C 725.02 687.35 727.29 681.14 724.08 675.94 C 722.83 672.84 719.04 673.60 716.39 673.24 C 716.09 680.63 716.20 688.03 716.14 695.43 C 711.92 695.15 707.26 695.31 703.56 693.01 C 702.75 674.83 703.79 656.57 703.59 638.36 Z" />
<path fill="#070707" d=" M 376.37 643.60 C 381.34 642.39 386.60 642.37 391.54 643.71 C 395.18 645.17 398.08 648.88 397.70 652.94 C 397.66 663.30 397.64 673.67 397.60 684.03 C 397.88 689.35 394.75 694.76 389.86 696.97 C 384.18 700.33 377.29 699.89 370.94 699.72 C 364.69 698.69 361.59 691.84 361.67 686.06 C 361.80 676.38 361.83 666.71 361.80 657.03 C 362.49 649.60 369.73 645.15 376.37 643.60 Z" />
<path fill="#070707" d=" M 748.70 648.64 C 750.44 645.74 753.50 643.45 756.97 643.33 C 764.22 642.88 772.43 643.77 777.77 649.25 C 781.55 653.46 781.44 659.29 781.20 664.59 C 777.26 664.68 773.31 664.51 769.44 663.77 C 768.95 660.81 769.72 656.95 766.97 654.95 C 765.36 653.20 762.88 653.55 760.75 653.37 C 758.12 655.92 757.75 659.92 760.49 662.58 C 765.67 667.50 772.85 669.95 777.60 675.43 C 785.11 682.97 781.93 698.88 771.03 701.32 C 763.76 701.93 755.26 701.67 749.75 696.22 C 745.50 691.68 745.27 685.06 745.34 679.20 C 749.32 679.61 753.26 680.45 757.17 681.35 C 757.55 684.53 757.37 688.55 760.58 690.36 C 763.50 690.89 768.13 691.47 769.12 687.74 C 770.49 684.36 767.19 681.97 765.08 679.90 C 758.87 674.64 749.61 671.69 746.73 663.40 C 745.94 658.48 746.14 653.05 748.70 648.64 Z" />
<path fill="#fefefe" d=" M 673.44 645.19 C 676.66 643.09 681.15 645.63 682.08 649.09 C 682.57 654.05 681.76 659.02 681.81 663.99 C 681.65 669.81 682.32 675.73 680.95 681.46 C 678.27 682.25 675.28 683.02 672.92 681.02 C 671.13 678.42 670.66 675.13 670.92 672.05 C 671.52 664.43 670.99 656.78 671.30 649.16 C 671.40 647.63 671.81 645.79 673.44 645.19 Z" />
<path fill="#070707" d=" M 344.50 649.54 C 347.51 647.54 351.93 647.91 355.52 647.33 C 354.24 662.40 349.48 676.90 348.26 691.98 C 347.46 696.20 347.36 701.59 343.01 703.88 C 339.41 705.16 335.49 705.33 331.69 705.54 C 329.24 694.68 328.38 683.46 325.03 672.81 C 321.70 684.05 320.43 695.72 319.36 707.36 C 314.35 708.21 309.29 708.84 304.19 708.79 C 301.82 691.39 297.67 674.25 295.46 656.84 C 299.06 655.98 302.74 655.51 306.45 655.38 C 308.49 666.69 310.26 678.07 311.88 689.46 C 314.68 679.37 315.85 668.94 318.04 658.72 C 318.58 657.04 318.16 654.84 319.72 653.66 C 322.86 651.58 326.65 650.84 330.33 650.41 C 334.05 656.53 334.21 663.83 335.40 670.70 C 336.33 676.05 336.43 681.77 339.24 686.59 C 339.67 684.63 340.03 682.67 340.23 680.69 C 341.47 670.29 342.84 659.86 344.50 649.54 Z" />
<path fill="#fefefe" d=" M 716.44 649.29 C 719.47 649.30 722.89 649.37 725.02 651.90 C 727.38 655.09 726.32 659.36 724.55 662.59 C 721.90 662.78 719.25 662.78 716.61 662.61 C 716.38 658.17 716.41 653.73 716.44 649.29 Z" />
<path fill="#070707" d=" M 791.10 655.99 C 791.33 653.57 789.67 650.41 792.03 648.69 C 795.98 649.22 799.95 649.72 803.85 650.58 C 803.85 657.69 803.45 664.81 803.72 671.93 C 806.05 674.17 810.17 673.28 813.27 673.68 C 813.58 666.53 813.90 659.38 813.55 652.23 C 817.67 652.51 821.73 653.38 825.72 654.45 C 825.81 672.50 825.12 690.54 825.23 708.59 C 821.20 708.65 817.25 707.88 813.29 707.38 C 813.07 699.47 813.44 691.55 813.20 683.64 C 809.95 683.15 806.73 682.49 803.46 682.29 C 803.33 690.03 803.32 697.78 803.21 705.53 C 798.92 705.40 794.71 704.57 790.46 704.18 C 790.60 688.11 790.55 672.04 791.10 655.99 Z" />
<path fill="#fefefe" d=" M 419.53 649.50 C 422.30 649.41 425.11 649.13 427.86 649.66 C 429.53 651.24 429.12 653.94 429.19 656.06 C 429.00 657.80 429.05 660.23 427.08 660.97 C 424.82 662.28 422.13 662.34 419.60 662.48 C 419.56 658.15 419.53 653.82 419.53 649.50 Z" />
<path fill="#aeaeae" d=" M 330.33 650.41 C 331.56 651.59 333.06 652.68 333.56 654.41 C 335.81 661.27 335.79 668.60 337.32 675.62 C 337.65 677.61 339.04 679.14 340.23 680.69 C 340.03 682.67 339.67 684.63 339.24 686.59 C 336.43 681.77 336.33 676.05 335.40 670.70 C 334.21 663.83 334.05 656.53 330.33 650.41 Z" />
<path fill="#fefefe" d=" M 374.51 657.03 C 375.77 652.83 380.60 652.91 384.16 653.53 C 386.76 659.70 385.49 666.51 385.72 673.00 C 385.46 677.92 386.55 683.32 383.88 687.78 C 382.05 689.88 379.07 689.90 376.54 689.48 C 374.08 687.39 374.23 683.94 374.26 681.02 C 374.44 673.02 374.10 665.01 374.51 657.03 Z" />
<path fill="#070707" d=" M 835.46 656.30 C 838.95 656.45 842.40 657.02 845.85 657.60 C 847.05 657.63 848.78 658.43 848.44 659.91 C 847.87 677.51 847.67 695.12 847.59 712.74 C 843.44 712.56 839.37 711.70 835.25 711.24 C 834.96 692.93 835.48 674.61 835.46 656.30 Z" />
<path fill="#070707" d=" M 857.20 660.56 C 864.69 661.11 872.05 662.82 879.27 664.85 C 885.13 667.23 891.56 671.96 891.55 678.95 C 891.50 683.38 892.13 688.04 890.36 692.24 C 889.33 694.22 887.71 695.80 886.25 697.46 C 880.38 696.70 874.46 696.54 868.56 696.27 C 868.55 702.78 868.59 709.29 868.43 715.80 C 864.42 715.70 860.41 715.35 856.51 714.39 C 856.74 706.26 856.64 698.13 856.72 690.00 C 856.62 680.18 857.44 670.38 857.20 660.56 Z" />
<path fill="#fefefe" d=" M 869.23 672.27 C 872.29 673.18 875.65 673.72 878.20 675.80 C 880.28 679.04 879.43 683.06 878.51 686.54 C 875.42 686.81 872.32 686.82 869.24 686.63 C 869.08 681.84 869.21 677.05 869.23 672.27 Z" />
<path fill="#fefefe" d=" M 169.96 715.08 C 182.51 711.62 194.74 707.07 207.33 703.80 C 207.94 709.84 210.10 715.56 212.94 720.89 C 216.42 728.67 221.02 735.96 226.55 742.46 C 233.90 750.18 240.30 759.32 249.85 764.53 C 252.18 763.89 254.56 763.04 257.02 763.37 C 265.86 764.51 274.50 766.98 283.38 767.84 C 281.17 768.94 278.92 769.97 276.52 770.57 C 264.59 773.64 252.85 777.38 241.08 780.98 C 229.88 785.26 218.42 788.85 207.28 793.28 C 204.82 794.04 202.08 796.59 199.54 794.73 C 186.00 787.16 174.00 776.11 166.88 762.18 C 164.57 757.01 162.93 751.53 161.87 745.98 C 161.43 738.18 161.70 730.06 164.93 722.82 C 166.12 720.00 166.23 715.71 169.96 715.08 Z" />
<path fill="#fefefe" d=" M 977.24 712.10 C 984.56 713.48 991.42 716.50 998.55 718.61 C 1003.67 720.29 1008.78 722.05 1013.79 724.08 C 1016.48 724.89 1016.92 727.97 1017.83 730.23 C 1020.71 738.93 1022.83 748.42 1020.32 757.49 C 1016.82 773.37 1005.90 786.60 993.15 796.22 C 989.11 799.25 984.49 801.32 980.08 803.73 C 954.24 791.81 927.56 781.55 900.11 774.00 C 909.13 773.05 918.00 770.95 926.98 769.63 C 929.01 770.09 930.90 771.05 932.86 771.82 C 939.41 765.00 946.92 759.22 953.87 752.84 C 961.05 745.36 966.70 736.50 971.05 727.12 C 973.09 722.10 974.94 717.01 977.24 712.10 Z" />
<path fill="#070707" d=" M 440.81 742.64 C 467.20 742.20 493.61 742.66 520.00 742.79 C 527.64 743.55 535.33 743.15 543.00 743.35 C 571.00 743.35 599.00 743.67 627.01 743.81 C 641.99 744.68 657.01 744.06 672.01 744.45 C 690.67 744.70 709.34 744.71 728.00 744.78 C 733.22 745.39 738.48 745.16 743.73 745.41 C 743.23 752.39 743.52 759.39 743.27 766.38 C 733.51 766.66 723.75 766.33 714.00 766.39 C 707.01 766.30 700.01 766.58 693.05 765.82 C 669.70 765.60 646.35 765.62 623.00 765.39 C 615.00 765.22 606.97 765.64 599.01 764.75 C 565.00 764.65 530.99 764.53 496.99 764.24 C 494.32 764.12 491.68 763.62 489.01 763.70 C 472.94 763.74 456.87 763.67 440.81 763.47 C 440.70 756.53 440.61 749.57 440.81 742.64 Z" />
<path fill="#fefefe" d=" M 285.00 752.28 C 288.89 751.05 292.70 749.38 296.81 749.04 C 297.92 752.83 299.66 756.54 299.78 760.55 C 291.39 758.63 282.83 757.73 274.40 756.07 C 277.73 754.29 281.45 753.49 285.00 752.28 Z" />
<path fill="#fefefe" d=" M 883.94 766.45 C 884.70 762.35 886.03 758.39 886.92 754.32 C 894.97 756.84 902.81 760.04 910.98 762.17 C 901.96 763.60 892.94 764.93 883.94 766.45 Z" />
</svg>
