<?xml version="1.0" encoding="UTF-8" ?>
<!DOCTYPE svg PUBLIC "-//W3C//DTD SVG 1.1//EN" "http://www.w3.org/Graphics/SVG/1.1/DTD/svg11.dtd">
<svg width="150pt" height="150pt" viewBox="0 0 685 303" version="1.1" xmlns="http://www.w3.org/2000/svg">
<path fill="#ffffff" d=" M 0.00 0.00 L 685.00 0.00 L 685.00 303.00 L 342.71 303.00 C 344.53 300.35 347.40 298.84 349.84 296.86 C 461.36 209.30 572.94 121.81 684.40 34.17 C 683.17 30.49 681.83 26.84 680.67 23.14 C 560.72 22.89 440.76 23.10 320.80 23.03 C 320.78 15.66 320.80 8.29 320.80 0.93 C 313.94 5.02 307.09 9.12 300.27 13.27 C 300.28 16.52 300.28 19.77 300.27 23.01 C 201.52 23.06 102.77 23.00 4.02 23.04 C 2.69 26.74 1.42 30.47 0.15 34.20 C 113.22 122.99 226.32 211.76 339.42 300.53 C 340.18 301.49 342.33 301.59 342.37 303.00 L 0.00 303.00 L 0.00 0.00 Z" />
<path fill="#393637" d=" M 300.27 13.27 C 307.09 9.12 313.94 5.02 320.80 0.93 C 320.80 8.29 320.78 15.66 320.80 23.03 C 320.82 27.21 320.80 31.40 320.84 35.58 C 320.85 38.18 320.85 40.77 320.87 43.36 C 327.31 43.39 333.75 43.37 340.18 43.37 C 342.12 43.36 344.06 43.36 346.00 43.37 C 352.29 43.38 358.58 43.37 364.87 43.36 C 367.78 43.38 370.70 43.40 373.62 43.38 C 384.73 43.36 395.85 43.38 406.97 43.37 C 410.02 43.36 413.09 43.36 416.15 43.37 C 425.61 43.39 435.06 43.36 444.52 43.38 C 447.49 43.40 450.46 43.40 453.43 43.38 C 455.28 43.38 457.14 43.37 459.00 43.36 C 462.00 43.32 465.00 43.31 468.00 43.35 C 486.60 43.41 505.20 43.34 523.79 43.38 C 523.99 47.62 524.17 51.86 524.34 56.09 C 505.56 56.48 486.78 56.77 468.00 57.13 C 462.96 57.32 457.91 57.13 452.87 57.38 C 450.07 57.41 447.26 57.44 444.46 57.53 C 420.85 58.07 397.23 58.39 373.61 58.82 C 371.54 58.86 369.48 58.89 367.42 58.93 C 359.65 59.06 351.88 59.19 344.12 59.35 C 341.93 59.39 339.75 59.41 337.57 59.41 C 332.89 59.36 328.20 59.38 323.52 59.40 C 322.88 59.39 321.59 59.38 320.95 59.38 C 320.81 61.27 320.75 63.16 320.77 65.06 C 320.82 74.95 320.79 84.85 320.79 94.75 C 320.80 97.23 320.82 99.70 320.82 102.18 C 320.82 112.95 320.69 123.72 320.90 134.49 C 321.14 137.66 320.86 141.30 323.16 143.84 C 324.78 145.90 327.34 146.85 329.87 147.19 C 333.76 147.48 337.65 146.99 341.51 146.50 C 342.50 152.56 343.49 158.61 344.46 164.67 C 339.96 165.64 335.39 166.28 330.80 166.49 C 327.82 166.59 324.83 166.48 321.88 166.13 C 315.68 165.43 309.44 162.90 305.46 157.93 C 303.25 155.24 302.03 151.93 301.41 148.55 C 300.36 141.39 300.27 134.14 300.28 126.93 C 300.29 112.19 300.26 97.45 300.29 82.71 C 300.29 81.13 300.28 79.54 300.28 77.95 C 300.27 71.77 300.28 65.60 300.28 59.42 C 278.12 59.12 255.96 58.94 233.81 58.71 C 220.48 58.82 207.17 58.09 193.85 58.29 C 189.47 58.22 185.09 58.18 180.72 58.17 C 180.11 53.28 180.11 48.33 179.75 43.42 C 189.21 43.32 198.68 43.40 208.14 43.38 C 210.05 43.38 211.97 43.38 213.89 43.38 C 218.98 43.08 224.23 44.09 229.19 42.64 C 231.11 42.30 232.95 42.90 234.79 43.35 C 245.91 43.41 257.02 43.34 268.14 43.38 C 278.26 43.32 288.38 43.41 298.51 43.42 C 298.90 43.35 299.68 43.20 300.07 43.12 C 300.13 42.42 300.25 41.03 300.31 40.33 C 300.30 38.72 300.29 37.11 300.28 35.49 C 300.23 31.33 300.25 27.17 300.27 23.01 C 300.28 19.77 300.28 16.52 300.27 13.27 Z" />
<path fill="#84716c" d=" M 4.02 23.04 C 102.77 23.00 201.52 23.06 300.27 23.01 C 300.25 27.17 300.23 31.33 300.28 35.49 C 297.79 35.45 295.31 35.45 292.83 35.50 C 286.03 35.56 279.23 35.50 272.43 35.53 C 269.37 35.53 266.30 35.55 263.24 35.56 C 246.78 35.48 230.33 35.56 213.87 35.52 C 211.96 35.50 210.05 35.50 208.15 35.52 C 188.04 35.53 167.94 35.53 147.84 35.52 C 144.42 35.53 141.01 35.43 137.60 35.45 C 116.40 35.65 95.20 35.42 74.00 35.57 C 71.11 35.65 68.21 35.64 65.32 35.56 C 50.90 35.48 36.48 35.54 22.07 35.53 C 36.23 46.72 50.49 57.76 64.60 69.01 C 65.16 69.46 65.73 69.90 66.30 70.34 C 158.34 142.43 250.25 214.69 342.22 286.89 C 369.96 265.28 397.57 243.47 425.25 221.77 C 428.25 219.36 431.28 216.99 434.35 214.67 C 450.49 201.81 466.92 189.31 482.95 176.32 C 490.08 170.93 497.09 165.39 504.05 159.80 C 521.24 146.56 538.24 133.07 555.28 119.65 C 558.64 117.01 562.02 114.39 565.42 111.81 C 572.52 106.12 579.71 100.52 586.88 94.91 C 589.14 93.20 591.39 91.46 593.61 89.69 C 616.46 71.54 639.55 53.70 662.39 35.55 C 644.22 35.49 626.06 35.55 607.90 35.51 C 605.96 35.50 604.03 35.50 602.11 35.51 C 557.41 35.57 512.70 35.46 468.00 35.57 C 465.00 35.65 462.01 35.63 459.02 35.56 C 456.89 35.54 454.75 35.55 452.63 35.38 C 448.88 34.71 445.06 34.86 441.32 35.42 C 433.22 35.71 425.10 35.38 417.00 35.58 C 416.88 35.75 416.64 36.10 416.53 36.27 C 413.76 36.31 410.99 36.32 408.24 36.12 C 407.05 35.14 405.39 35.64 404.00 35.50 C 384.66 35.56 365.33 35.51 346.00 35.53 C 343.96 35.53 341.93 35.54 339.91 35.54 C 333.55 35.53 327.20 35.47 320.84 35.58 C 320.80 31.40 320.82 27.21 320.80 23.03 C 440.76 23.10 560.72 22.89 680.67 23.14 C 681.83 26.84 683.17 30.49 684.40 34.17 C 572.94 121.81 461.36 209.30 349.84 296.86 C 347.40 298.84 344.53 300.35 342.71 303.00 L 342.37 303.00 C 342.33 301.59 340.18 301.49 339.42 300.53 C 226.32 211.76 113.22 122.99 0.15 34.20 C 1.42 30.47 2.69 26.74 4.02 23.04 Z" />
<path fill="#ffffff" d=" M 22.07 35.53 C 36.48 35.54 50.90 35.48 65.32 35.56 C 65.50 44.36 65.34 53.17 65.42 61.97 C 65.41 64.33 65.69 66.81 64.60 69.01 C 50.49 57.76 36.23 46.72 22.07 35.53 Z" />
<path fill="#c9cbd1" d=" M 137.60 35.45 C 141.01 35.43 144.42 35.53 147.84 35.52 C 147.60 45.27 147.86 55.02 147.71 64.78 C 146.31 64.75 144.92 64.73 143.53 64.71 C 143.46 55.54 143.65 46.37 143.46 37.20 C 140.69 38.84 137.98 40.60 135.08 42.00 C 135.11 40.72 135.15 39.44 135.19 38.16 C 135.99 37.26 136.80 36.36 137.60 35.45 Z" />
<path fill="#9e9390" d=" M 441.32 35.42 C 445.06 34.86 448.88 34.71 452.63 35.38 C 452.66 35.64 452.72 36.16 452.75 36.42 C 449.91 36.16 447.06 36.13 444.23 36.40 C 443.50 36.16 442.05 35.67 441.32 35.42 Z" />
<path fill="#ffffff" d=" M 452.63 35.38 C 454.75 35.55 456.89 35.54 459.02 35.56 C 458.99 38.16 458.98 40.76 459.00 43.36 C 457.14 43.37 455.28 43.38 453.43 43.38 C 453.18 41.07 452.95 38.75 452.75 36.42 C 452.72 36.16 452.66 35.64 452.63 35.38 Z" />
<path fill="#c9cbd1" d=" M 65.32 35.56 C 68.21 35.64 71.11 35.65 74.00 35.57 C 73.99 47.03 74.02 58.50 73.99 69.96 C 71.42 69.98 68.85 70.06 66.30 70.34 C 65.73 69.90 65.16 69.46 64.60 69.01 C 65.69 66.81 65.41 64.33 65.42 61.97 C 65.34 53.17 65.50 44.36 65.32 35.56 Z" />
<path fill="#ffffff" d=" M 74.00 35.57 C 95.20 35.42 116.40 35.65 137.60 35.45 C 136.80 36.36 135.99 37.26 135.19 38.16 C 135.15 39.44 135.11 40.72 135.08 42.00 C 137.98 40.60 140.69 38.84 143.46 37.20 C 143.65 46.37 143.46 55.54 143.53 64.71 C 144.92 64.73 146.31 64.75 147.71 64.78 C 147.86 55.02 147.60 45.27 147.84 35.52 C 167.94 35.53 188.04 35.53 208.15 35.52 C 208.16 38.14 208.16 40.76 208.14 43.38 C 198.68 43.40 189.21 43.32 179.75 43.42 C 180.11 48.33 180.11 53.28 180.72 58.17 C 185.09 58.18 189.47 58.22 193.85 58.29 C 198.78 58.63 203.72 58.73 208.66 58.86 C 205.79 61.29 207.30 65.32 207.04 68.58 C 213.65 66.79 219.12 62.47 224.72 58.74 C 224.86 63.69 224.70 68.64 224.81 73.60 C 216.31 71.46 206.80 72.53 199.62 77.81 C 197.83 75.85 195.67 74.26 193.18 73.31 C 189.70 71.49 185.68 71.93 181.90 72.02 C 175.57 72.28 169.82 76.29 166.75 81.74 C 161.63 90.19 161.45 100.40 161.43 109.97 C 161.70 119.45 162.56 129.70 168.48 137.53 C 171.41 141.57 176.10 143.75 180.84 144.87 C 180.83 147.33 180.84 149.79 180.86 152.25 C 185.24 152.28 189.63 152.28 194.02 152.26 C 194.04 149.20 194.04 146.16 194.02 143.11 C 204.05 137.70 207.41 125.65 207.72 115.03 C 207.75 105.30 208.60 95.17 204.86 85.95 C 211.38 82.77 221.70 82.91 225.04 90.50 C 224.68 98.24 224.72 106.00 224.94 113.74 C 225.48 113.88 226.55 114.18 227.08 114.32 C 227.08 114.72 227.07 115.51 227.06 115.91 C 224.42 117.38 223.46 120.50 221.20 122.40 C 216.50 127.21 211.00 131.12 205.00 134.14 C 204.95 136.98 204.95 139.82 205.02 142.66 C 211.41 140.50 217.10 136.68 222.38 132.56 C 221.99 151.03 222.46 169.52 222.46 188.00 C 225.30 188.04 228.15 188.04 230.99 187.99 C 231.02 176.09 230.99 164.19 231.00 152.29 C 234.10 152.27 237.20 152.27 240.30 152.25 C 240.36 136.80 240.25 121.35 240.35 105.89 C 240.49 99.73 241.74 92.87 246.67 88.66 C 252.54 83.43 262.47 82.09 268.79 87.25 C 272.27 90.04 272.97 94.75 273.14 98.93 C 269.96 99.02 266.50 99.75 264.50 102.47 C 260.33 107.73 261.08 114.80 261.11 121.08 C 261.19 125.68 262.47 130.82 266.40 133.64 C 268.32 135.24 270.95 134.80 273.25 135.01 C 273.26 140.75 273.23 146.50 273.26 152.24 C 277.63 152.29 282.00 152.28 286.37 152.25 C 286.42 134.85 286.37 117.44 286.40 100.04 C 286.40 94.23 285.88 88.16 283.06 82.96 C 280.40 78.00 275.37 74.60 269.93 73.41 C 263.41 71.99 256.31 72.27 250.27 75.29 C 245.34 77.66 241.42 81.67 238.33 86.11 C 237.17 83.51 235.80 80.99 233.84 78.91 C 233.74 72.18 233.81 65.44 233.81 58.71 C 255.96 58.94 278.12 59.12 300.28 59.42 C 300.28 65.60 300.27 71.77 300.28 77.95 C 298.30 79.37 295.93 80.31 294.21 82.04 C 294.13 83.31 294.11 84.58 294.14 85.85 C 296.22 84.86 298.26 83.80 300.29 82.71 C 300.26 97.45 300.29 112.19 300.28 126.93 C 300.27 134.14 300.36 141.39 301.41 148.55 C 298.63 151.38 295.43 153.72 292.09 155.86 C 292.10 157.18 292.11 158.51 292.13 159.84 C 294.97 158.43 297.57 156.56 300.45 155.20 C 300.57 164.34 300.44 173.47 300.49 182.61 C 301.86 182.62 303.25 182.63 304.64 182.64 C 304.87 175.09 304.45 167.52 304.80 159.97 C 304.97 159.46 305.30 158.44 305.46 157.93 C 309.44 162.90 315.68 165.43 321.88 166.13 C 322.95 172.38 325.04 178.80 329.68 183.34 C 336.42 189.88 347.69 190.25 355.51 185.48 C 363.21 180.34 365.94 170.83 366.94 162.12 C 368.25 161.99 369.56 161.86 370.87 161.74 C 370.89 160.52 370.91 159.30 370.94 158.08 C 380.76 159.83 391.32 158.95 400.21 154.16 C 404.19 152.10 407.80 149.39 411.28 146.58 C 411.81 150.15 412.61 153.71 414.17 156.99 C 416.19 157.00 418.22 157.01 420.25 157.00 C 420.21 163.18 419.82 170.05 423.63 175.33 C 426.45 179.31 432.04 179.70 436.32 178.25 C 441.12 175.86 443.08 170.08 442.91 165.00 C 442.72 158.73 444.06 151.56 439.68 146.33 C 436.39 141.81 429.91 142.60 425.29 144.29 C 424.30 128.54 424.96 112.74 424.65 96.97 C 424.55 92.85 424.34 88.65 422.84 84.77 C 429.68 86.33 437.66 85.96 443.24 81.26 C 450.11 75.47 452.78 66.09 452.87 57.38 C 454.93 57.48 456.99 57.59 459.05 57.74 C 459.28 63.90 458.99 70.07 459.23 76.23 C 449.82 82.25 445.00 93.19 443.46 103.91 C 441.99 114.80 442.32 126.27 446.43 136.59 C 450.40 146.73 459.33 154.80 469.92 157.48 C 479.42 159.88 489.96 159.48 498.75 154.85 C 508.95 149.60 515.29 138.83 516.81 127.67 C 512.10 127.04 507.38 126.40 502.67 125.81 C 501.68 131.99 499.61 138.52 494.53 142.56 C 486.60 148.99 474.01 148.48 466.45 141.71 C 466.57 133.23 466.55 124.75 466.48 116.26 C 462.53 116.30 461.23 121.08 457.94 122.68 C 457.15 113.82 457.14 104.57 460.40 96.16 C 462.67 90.21 467.58 85.45 473.49 83.14 C 474.83 89.81 473.70 97.00 476.70 103.37 C 478.79 109.14 484.89 112.93 491.01 112.05 C 496.40 112.37 500.57 108.34 503.10 104.01 C 505.59 103.82 508.14 104.05 510.61 103.53 C 513.66 102.51 515.12 99.23 517.94 97.80 C 521.04 96.11 524.01 94.21 526.84 92.09 C 526.98 105.27 526.46 118.48 527.09 131.64 C 528.99 131.67 530.90 131.68 532.82 131.68 C 532.88 114.83 532.99 97.98 532.75 81.14 C 531.58 81.19 530.42 81.25 529.26 81.31 C 526.02 85.23 522.52 89.07 517.99 91.53 C 517.44 84.58 519.50 76.40 514.20 70.77 C 511.22 66.98 506.04 68.20 501.90 68.39 C 499.88 66.60 497.96 64.57 495.40 63.57 C 488.94 61.61 480.42 63.11 477.60 70.03 C 474.35 70.47 471.11 71.05 468.00 72.08 C 468.01 67.10 468.00 62.11 468.00 57.13 C 486.78 56.77 505.56 56.48 524.34 56.09 C 524.17 51.86 523.99 47.62 523.79 43.38 C 505.20 43.34 486.60 43.41 468.00 43.35 C 468.00 40.76 468.00 38.16 468.00 35.57 C 512.70 35.46 557.41 35.57 602.11 35.51 C 602.19 42.57 602.01 49.63 602.20 56.68 C 604.05 56.69 605.91 56.69 607.78 56.67 C 608.02 49.62 607.79 42.57 607.90 35.51 C 626.06 35.55 644.22 35.49 662.39 35.55 C 639.55 53.70 616.46 71.54 593.61 89.69 C 590.99 88.73 588.88 86.85 586.39 85.65 C 578.51 82.52 568.61 84.28 563.06 90.95 C 556.39 98.80 555.22 109.72 555.28 119.65 C 538.24 133.07 521.24 146.56 504.05 159.80 C 493.98 157.93 484.49 166.72 482.95 176.32 C 466.92 189.31 450.49 201.81 434.35 214.67 C 433.61 208.53 434.22 202.33 433.97 196.17 C 431.91 196.48 428.81 195.26 427.72 197.65 C 423.15 205.14 415.79 210.35 408.08 214.24 C 407.91 217.11 407.93 219.99 408.06 222.86 C 414.27 220.42 419.92 216.80 425.25 212.81 C 425.41 215.79 425.41 218.79 425.25 221.77 C 397.57 243.47 369.96 265.28 342.22 286.89 C 250.25 214.69 158.34 142.43 66.30 70.34 C 68.85 70.06 71.42 69.98 73.99 69.96 C 74.02 58.50 73.99 47.03 74.00 35.57 Z" />
<path fill="#c9cbd1" d=" M 208.15 35.52 C 210.05 35.50 211.96 35.50 213.87 35.52 C 213.87 38.14 213.88 40.76 213.89 43.38 C 211.97 43.38 210.05 43.38 208.14 43.38 C 208.16 40.76 208.16 38.14 208.15 35.52 Z" />
<path fill="#ffffff" d=" M 213.87 35.52 C 230.33 35.56 246.78 35.48 263.24 35.56 C 264.31 38.48 266.11 41.04 268.14 43.38 C 257.02 43.34 245.91 43.41 234.79 43.35 C 232.95 42.90 231.11 42.30 229.19 42.64 C 224.23 44.09 218.98 43.08 213.89 43.38 C 213.88 40.76 213.87 38.14 213.87 35.52 Z" />
<path fill="#c9cbd1" d=" M 263.24 35.56 C 266.30 35.55 269.37 35.53 272.43 35.53 C 274.64 38.22 277.35 40.90 281.01 41.25 C 285.75 42.43 290.50 39.54 292.83 35.50 C 295.31 35.45 297.79 35.45 300.28 35.49 C 300.29 37.11 300.30 38.72 300.31 40.33 C 299.22 40.92 298.06 42.07 298.51 43.42 C 288.38 43.41 278.26 43.32 268.14 43.38 C 266.11 41.04 264.31 38.48 263.24 35.56 Z" />
<path fill="#ffffff" d=" M 272.43 35.53 C 279.23 35.50 286.03 35.56 292.83 35.50 C 290.50 39.54 285.75 42.43 281.01 41.25 C 277.35 40.90 274.64 38.22 272.43 35.53 Z" />
<path fill="#ffffff" d=" M 320.84 35.58 C 327.20 35.47 333.55 35.53 339.91 35.54 C 340.01 38.15 340.11 40.76 340.18 43.37 C 333.75 43.37 327.31 43.39 320.87 43.36 C 320.85 40.77 320.85 38.18 320.84 35.58 Z" />
<path fill="#c9cbd1" d=" M 339.91 35.54 C 341.93 35.54 343.96 35.53 346.00 35.53 C 346.00 38.14 346.00 40.75 346.00 43.37 C 344.06 43.36 342.12 43.36 340.18 43.37 C 340.11 40.76 340.01 38.15 339.91 35.54 Z" />
<path fill="#ffffff" d=" M 346.00 35.53 C 365.33 35.51 384.66 35.56 404.00 35.50 C 405.39 35.64 407.05 35.14 408.24 36.12 C 407.42 38.46 407.18 40.92 406.97 43.37 C 395.85 43.38 384.73 43.36 373.62 43.38 C 373.56 41.33 373.51 39.28 373.47 37.23 C 369.01 35.99 367.54 40.96 364.87 43.36 C 358.58 43.37 352.29 43.38 346.00 43.37 C 346.00 40.75 346.00 38.14 346.00 35.53 Z" />
<path fill="#ffffff" d=" M 417.00 35.58 C 425.10 35.38 433.22 35.71 441.32 35.42 C 442.05 35.67 443.50 36.16 444.23 36.40 C 444.34 38.73 444.44 41.06 444.52 43.38 C 435.06 43.36 425.61 43.39 416.15 43.37 C 416.37 41.01 416.47 38.64 416.53 36.27 C 416.64 36.10 416.88 35.75 417.00 35.58 Z" />
<path fill="#c9cbd1" d=" M 459.02 35.56 C 462.01 35.63 465.00 35.65 468.00 35.57 C 468.00 38.16 468.00 40.76 468.00 43.35 C 465.00 43.31 462.00 43.32 459.00 43.36 C 458.98 40.76 458.99 38.16 459.02 35.56 Z" />
<path fill="#c9cbd1" d=" M 602.11 35.51 C 604.03 35.50 605.96 35.50 607.90 35.51 C 607.79 42.57 608.02 49.62 607.78 56.67 C 605.91 56.69 604.05 56.69 602.20 56.68 C 602.01 49.63 602.19 42.57 602.11 35.51 Z" />
<path fill="#c9cbd1" d=" M 364.87 43.36 C 367.54 40.96 369.01 35.99 373.47 37.23 C 373.51 39.28 373.56 41.33 373.62 43.38 C 370.70 43.40 367.78 43.38 364.87 43.36 Z" />
<path fill="#c9cbd1" d=" M 406.97 43.37 C 407.18 40.92 407.42 38.46 408.24 36.12 C 410.99 36.32 413.76 36.31 416.53 36.27 C 416.47 38.64 416.37 41.01 416.15 43.37 C 413.09 43.36 410.02 43.36 406.97 43.37 Z" />
<path fill="#c9cbd1" d=" M 444.23 36.40 C 447.06 36.13 449.91 36.16 452.75 36.42 C 452.95 38.75 453.18 41.07 453.43 43.38 C 450.46 43.40 447.49 43.40 444.52 43.38 C 444.44 41.06 444.34 38.73 444.23 36.40 Z" />
<path fill="#ffffff" d=" M 298.51 43.42 C 298.06 42.07 299.22 40.92 300.31 40.33 C 300.25 41.03 300.13 42.42 300.07 43.12 C 299.68 43.20 298.90 43.35 298.51 43.42 Z" />
<path fill="#c9cbd1" d=" M 538.38 42.39 C 539.01 41.16 540.39 41.47 541.53 41.39 C 541.56 53.19 541.43 64.99 541.59 76.79 C 540.15 76.85 538.71 76.88 537.28 76.87 C 537.27 67.80 537.46 58.72 537.20 49.66 C 534.28 51.07 531.77 54.03 528.31 53.80 C 528.38 52.75 528.46 51.70 528.55 50.65 C 532.24 48.42 535.83 45.94 538.38 42.39 Z" />
<path fill="#c9cbd1" d=" M 110.35 55.48 C 114.19 54.65 118.63 55.66 121.06 58.92 C 124.40 63.56 124.77 69.52 124.58 75.04 C 124.53 79.54 123.78 84.29 121.02 87.97 C 117.00 93.34 107.42 92.75 104.20 86.82 C 101.05 81.17 101.20 74.37 101.70 68.11 C 102.19 62.89 104.66 56.70 110.35 55.48 Z" />
<path fill="#c9cbd1" d=" M 452.87 57.38 C 457.91 57.13 462.96 57.32 468.00 57.13 C 468.00 62.11 468.01 67.10 468.00 72.08 C 464.92 73.12 461.98 74.51 459.23 76.23 C 458.99 70.07 459.28 63.90 459.05 57.74 C 456.99 57.59 454.93 57.48 452.87 57.38 Z" />
<path fill="#c9cbd1" d=" M 193.85 58.29 C 207.17 58.09 220.48 58.82 233.81 58.71 C 233.81 65.44 233.74 72.18 233.84 78.91 C 231.36 76.37 228.21 74.59 224.81 73.60 C 224.70 68.64 224.86 63.69 224.72 58.74 C 219.12 62.47 213.65 66.79 207.04 68.58 C 207.30 65.32 205.79 61.29 208.66 58.86 C 203.72 58.73 198.78 58.63 193.85 58.29 Z" />
<path fill="#ffffff" d=" M 373.61 58.82 C 397.23 58.39 420.85 58.07 444.46 57.53 C 443.91 64.19 442.99 72.01 437.19 76.30 C 432.56 79.98 425.35 78.75 421.62 74.36 C 417.57 70.18 417.28 64.06 416.23 58.66 C 413.31 58.60 410.38 58.62 407.47 58.73 C 407.78 63.38 409.05 67.87 410.41 72.31 L 409.12 72.37 C 397.68 68.87 385.10 69.17 373.67 72.53 C 373.47 67.96 373.50 63.39 373.61 58.82 Z" />
<path fill="#c9cbd1" d=" M 444.46 57.53 C 447.26 57.44 450.07 57.41 452.87 57.38 C 452.78 66.09 450.11 75.47 443.24 81.26 C 437.66 85.96 429.68 86.33 422.84 84.77 C 420.79 78.51 415.15 74.41 409.12 72.37 L 410.41 72.31 C 409.05 67.87 407.78 63.38 407.47 58.73 C 410.38 58.62 413.31 58.60 416.23 58.66 C 417.28 64.06 417.57 70.18 421.62 74.36 C 425.35 78.75 432.56 79.98 437.19 76.30 C 442.99 72.01 443.91 64.19 444.46 57.53 Z" />
<path fill="#ffffff" d=" M 110.31 59.31 C 113.62 57.51 117.80 59.72 118.93 63.11 C 120.53 67.90 120.40 73.08 120.08 78.06 C 119.71 81.57 119.06 85.95 115.45 87.59 C 112.24 89.33 108.24 87.05 107.14 83.80 C 105.35 78.40 105.55 72.53 106.22 66.94 C 106.67 64.10 107.50 60.70 110.31 59.31 Z" />
<path fill="#c9cbd1" d=" M 320.95 59.38 C 321.59 59.38 322.88 59.39 323.52 59.40 C 325.30 61.71 327.82 63.86 330.96 63.53 C 333.81 63.52 335.93 61.50 337.57 59.41 C 339.75 59.41 341.93 59.39 344.12 59.35 C 342.08 63.01 339.35 66.86 335.02 67.85 C 330.11 68.35 324.70 68.58 320.77 65.06 C 320.75 63.16 320.81 61.27 320.95 59.38 Z" />
<path fill="#ffffff" d=" M 323.52 59.40 C 328.20 59.38 332.89 59.36 337.57 59.41 C 335.93 61.50 333.81 63.52 330.96 63.53 C 327.82 63.86 325.30 61.71 323.52 59.40 Z" />
<path fill="#ffffff" d=" M 344.12 59.35 C 351.88 59.19 359.65 59.06 367.42 58.93 C 367.52 64.34 367.49 69.74 367.46 75.15 C 359.47 79.18 355.06 87.67 353.37 96.14 C 358.08 96.80 362.78 97.56 367.52 98.00 C 369.03 91.47 372.92 84.50 380.01 83.02 C 388.24 81.25 397.79 81.03 405.04 85.94 C 410.41 89.75 410.38 97.06 410.11 102.97 C 404.57 104.79 398.81 105.89 393.05 106.75 C 392.92 102.08 393.13 97.40 392.92 92.73 C 392.81 90.53 392.79 88.32 392.84 86.11 C 391.01 86.14 389.18 86.17 387.36 86.22 C 386.01 88.48 384.52 90.67 382.59 92.49 C 378.06 97.15 372.57 100.63 366.95 103.82 C 366.97 106.43 366.98 109.04 367.01 111.65 C 363.04 113.41 359.28 115.76 356.42 119.07 C 352.78 116.50 348.48 115.45 344.06 115.94 C 343.57 109.53 343.08 102.51 338.60 97.46 C 334.26 92.42 326.50 91.78 320.79 94.75 C 320.79 84.85 320.82 74.95 320.77 65.06 C 324.70 68.58 330.11 68.35 335.02 67.85 C 339.35 66.86 342.08 63.01 344.12 59.35 Z" />
<path fill="#c9cbd1" d=" M 367.42 58.93 C 369.48 58.89 371.54 58.86 373.61 58.82 C 373.50 63.39 373.47 67.96 373.67 72.53 C 371.54 73.27 369.47 74.15 367.46 75.15 C 367.49 69.74 367.52 64.34 367.42 58.93 Z" />
<path fill="#c9cbd1" d=" M 477.60 70.03 C 480.42 63.11 488.94 61.61 495.40 63.57 C 497.96 64.57 499.88 66.60 501.90 68.39 C 506.04 68.20 511.22 66.98 514.20 70.77 C 519.50 76.40 517.44 84.58 517.99 91.53 C 522.52 89.07 526.02 85.23 529.26 81.31 C 530.42 81.25 531.58 81.19 532.75 81.14 C 532.99 97.98 532.88 114.83 532.82 131.68 C 530.90 131.68 528.99 131.67 527.09 131.64 C 526.46 118.48 526.98 105.27 526.84 92.09 C 524.01 94.21 521.04 96.11 517.94 97.80 C 515.12 99.23 513.66 102.51 510.61 103.53 C 508.14 104.05 505.59 103.82 503.10 104.01 C 500.57 108.34 496.40 112.37 491.01 112.05 C 484.89 112.93 478.79 109.14 476.70 103.37 C 473.70 97.00 474.83 89.81 473.49 83.14 C 475.73 82.45 478.05 82.08 480.38 81.84 C 480.30 88.01 479.99 94.33 481.70 100.33 C 482.67 103.66 485.37 106.83 488.99 107.21 C 493.20 107.85 497.62 104.25 497.95 100.08 C 496.35 95.84 495.09 91.46 495.16 86.88 C 498.49 90.12 500.34 94.53 501.42 98.97 C 501.98 98.92 503.10 98.82 503.66 98.77 C 505.60 101.85 509.74 100.69 511.59 98.16 C 510.90 98.08 509.52 97.94 508.83 97.87 C 511.02 97.48 513.22 97.16 515.44 96.87 C 514.93 94.46 514.25 92.08 513.38 89.77 C 514.67 85.30 513.96 80.51 512.84 76.08 C 511.84 72.39 507.65 70.20 504.08 71.73 C 504.10 73.39 504.12 75.06 504.13 76.73 C 501.75 75.15 499.26 73.76 496.65 72.63 C 495.52 67.36 487.96 66.53 484.41 69.93 C 482.13 69.79 479.86 69.82 477.60 70.03 Z" />
<path fill="#ffffff" d=" M 484.41 69.93 C 487.96 66.53 495.52 67.36 496.65 72.63 C 492.75 71.03 488.56 70.40 484.41 69.93 Z" />
<path fill="#06b1ef" d=" M 373.67 72.53 C 385.10 69.17 397.68 68.87 409.12 72.37 C 415.15 74.41 420.79 78.51 422.84 84.77 C 424.34 88.65 424.55 92.85 424.65 96.97 C 424.96 112.74 424.30 128.54 425.29 144.29 C 425.52 146.16 425.85 148.01 426.29 149.85 C 427.07 152.30 428.11 154.67 429.23 156.99 C 427.70 156.99 426.18 157.00 424.66 157.00 C 423.18 157.00 421.71 157.00 420.25 157.00 C 418.22 157.01 416.19 157.00 414.17 156.99 C 412.61 153.71 411.81 150.15 411.28 146.58 C 407.80 149.39 404.19 152.10 400.21 154.16 C 391.32 158.95 380.76 159.83 370.94 158.08 C 366.35 157.15 361.97 155.18 358.42 152.11 C 351.20 145.78 349.21 135.03 352.29 126.15 C 353.35 123.63 354.70 121.22 356.42 119.07 C 359.28 115.76 363.04 113.41 367.01 111.65 C 368.88 110.88 370.82 110.30 372.78 109.78 C 376.49 108.99 380.26 108.48 384.02 107.95 C 387.03 107.52 390.04 107.17 393.05 106.75 C 398.81 105.89 404.57 104.79 410.11 102.97 C 410.38 97.06 410.41 89.75 405.04 85.94 C 397.79 81.03 388.24 81.25 380.01 83.02 C 372.92 84.50 369.03 91.47 367.52 98.00 C 362.78 97.56 358.08 96.80 353.37 96.14 C 355.06 87.67 359.47 79.18 367.46 75.15 C 369.47 74.15 371.54 73.27 373.67 72.53 Z" />
<path fill="#393637" d=" M 468.00 72.08 C 471.11 71.05 474.35 70.47 477.60 70.03 C 479.86 69.82 482.13 69.79 484.41 69.93 C 488.56 70.40 492.75 71.03 496.65 72.63 C 499.26 73.76 501.75 75.15 504.13 76.73 C 508.10 80.34 511.56 84.65 513.38 89.77 C 514.25 92.08 514.93 94.46 515.44 96.87 C 513.22 97.16 511.02 97.48 508.83 97.87 C 507.10 98.15 505.38 98.49 503.66 98.77 C 503.10 98.82 501.98 98.92 501.42 98.97 C 500.34 94.53 498.49 90.12 495.16 86.88 C 491.28 83.07 485.71 81.50 480.38 81.84 C 478.05 82.08 475.73 82.45 473.49 83.14 C 467.58 85.45 462.67 90.21 460.40 96.16 C 457.14 104.57 457.15 113.82 457.94 122.68 C 458.07 123.80 458.23 124.91 458.45 126.01 C 459.06 129.41 460.09 132.74 461.66 135.82 C 462.89 138.05 464.54 140.03 466.45 141.71 C 474.01 148.48 486.60 148.99 494.53 142.56 C 499.61 138.52 501.68 131.99 502.67 125.81 C 507.38 126.40 512.10 127.04 516.81 127.67 C 515.29 138.83 508.95 149.60 498.75 154.85 C 489.96 159.48 479.42 159.88 469.92 157.48 C 459.33 154.80 450.40 146.73 446.43 136.59 C 442.32 126.27 441.99 114.80 443.46 103.91 C 445.00 93.19 449.82 82.25 459.23 76.23 C 461.98 74.51 464.92 73.12 468.00 72.08 Z" />
<path fill="#ffffff" d=" M 504.08 71.73 C 507.65 70.20 511.84 72.39 512.84 76.08 C 513.96 80.51 514.67 85.30 513.38 89.77 C 511.56 84.65 508.10 80.34 504.13 76.73 C 504.12 75.06 504.10 73.39 504.08 71.73 Z" />
<path fill="#c9cbd1" d=" M 166.75 81.74 C 169.82 76.29 175.57 72.28 181.90 72.02 C 185.68 71.93 189.70 71.49 193.18 73.31 L 192.27 74.24 C 188.39 74.63 184.45 73.89 180.60 74.63 C 180.67 76.32 180.74 78.01 180.78 79.70 C 176.84 81.66 173.86 85.23 172.79 89.52 C 169.79 100.48 170.07 112.12 171.59 123.29 C 172.27 129.15 175.52 134.54 180.82 137.30 C 180.82 139.82 180.84 142.34 180.84 144.87 C 176.10 143.75 171.41 141.57 168.48 137.53 C 162.56 129.70 161.70 119.45 161.43 109.97 C 161.45 100.40 161.63 90.19 166.75 81.74 Z" />
<path fill="#06b1ef" d=" M 199.62 77.81 C 206.80 72.53 216.31 71.46 224.81 73.60 C 228.21 74.59 231.36 76.37 233.84 78.91 C 235.80 80.99 237.17 83.51 238.33 86.11 C 241.42 81.67 245.34 77.66 250.27 75.29 C 256.31 72.27 263.41 71.99 269.93 73.41 C 275.37 74.60 280.40 78.00 283.06 82.96 C 285.88 88.16 286.40 94.23 286.40 100.04 C 286.37 117.44 286.42 134.85 286.37 152.25 C 282.00 152.28 277.63 152.29 273.26 152.24 C 273.23 146.50 273.26 140.75 273.25 135.01 C 273.25 134.32 273.24 132.95 273.24 132.27 C 273.25 122.30 273.27 112.33 273.23 102.36 C 273.21 101.22 273.18 100.07 273.14 98.93 C 272.97 94.75 272.27 90.04 268.79 87.25 C 262.47 82.09 252.54 83.43 246.67 88.66 C 241.74 92.87 240.49 99.73 240.35 105.89 C 240.25 121.35 240.36 136.80 240.30 152.25 C 237.20 152.27 234.10 152.27 231.00 152.29 C 229.64 152.29 228.28 152.29 226.93 152.28 C 227.15 142.43 226.90 132.58 227.01 122.73 C 227.10 120.46 227.09 118.18 227.06 115.91 C 227.07 115.51 227.08 114.72 227.08 114.32 C 226.65 106.41 228.37 97.98 225.04 90.50 C 221.70 82.91 211.38 82.77 204.86 85.95 C 201.94 87.46 199.48 89.74 197.60 92.42 C 194.67 97.76 194.22 104.01 194.06 109.98 C 194.00 117.61 194.07 125.24 194.02 132.86 C 193.98 136.28 193.99 139.69 194.02 143.11 C 194.04 146.16 194.04 149.20 194.02 152.26 C 189.63 152.28 185.24 152.28 180.86 152.25 C 180.84 149.79 180.83 147.33 180.84 144.87 C 180.84 142.34 180.82 139.82 180.82 137.30 C 180.83 118.10 180.90 98.89 180.78 79.70 C 180.74 78.01 180.67 76.32 180.60 74.63 C 184.45 73.89 188.39 74.63 192.27 74.24 L 193.18 73.31 C 192.08 77.14 192.96 81.26 192.56 85.21 C 194.57 82.43 196.85 79.84 199.62 77.81 Z" />
<path fill="#c9cbd1" d=" M 193.18 73.31 C 195.67 74.26 197.83 75.85 199.62 77.81 C 196.85 79.84 194.57 82.43 192.56 85.21 C 192.96 81.26 192.08 77.14 193.18 73.31 Z" />
<path fill="#c9cbd1" d=" M 294.21 82.04 C 295.93 80.31 298.30 79.37 300.28 77.95 C 300.28 79.54 300.29 81.13 300.29 82.71 C 298.26 83.80 296.22 84.86 294.14 85.85 C 294.11 84.58 294.13 83.31 294.21 82.04 Z" />
<path fill="#ffffff" d=" M 172.79 89.52 C 173.86 85.23 176.84 81.66 180.78 79.70 C 180.90 98.89 180.83 118.10 180.82 137.30 C 175.52 134.54 172.27 129.15 171.59 123.29 C 170.07 112.12 169.79 100.48 172.79 89.52 Z" />
<path fill="#ffffff" d=" M 480.38 81.84 C 485.71 81.50 491.28 83.07 495.16 86.88 C 495.09 91.46 496.35 95.84 497.95 100.08 C 497.62 104.25 493.20 107.85 488.99 107.21 C 485.37 106.83 482.67 103.66 481.70 100.33 C 479.99 94.33 480.30 88.01 480.38 81.84 Z" />
<path fill="#c9cbd1" d=" M 563.06 90.95 C 568.61 84.28 578.51 82.52 586.39 85.65 C 588.88 86.85 590.99 88.73 593.61 89.69 C 591.39 91.46 589.14 93.20 586.88 94.91 C 584.12 92.69 580.67 90.81 577.02 91.76 C 572.03 92.18 568.20 96.31 566.78 100.90 C 565.73 104.39 564.33 108.16 565.42 111.81 C 562.02 114.39 558.64 117.01 555.28 119.65 C 555.22 109.72 556.39 98.80 563.06 90.95 Z" />
<path fill="#c9cbd1" d=" M 197.60 92.42 C 199.48 89.74 201.94 87.46 204.86 85.95 C 208.60 95.17 207.75 105.30 207.72 115.03 C 207.41 125.65 204.05 137.70 194.02 143.11 C 193.99 139.69 193.98 136.28 194.02 132.86 C 197.68 129.20 198.08 123.76 198.77 118.91 C 199.59 110.10 199.78 101.06 197.60 92.42 Z" />
<path fill="#9e9390" d=" M 387.36 86.22 C 389.18 86.17 391.01 86.14 392.84 86.11 C 392.79 88.32 392.81 90.53 392.92 92.73 C 389.48 92.61 386.03 92.61 382.59 92.49 C 384.52 90.67 386.01 88.48 387.36 86.22 Z" />
<path fill="#c9cbd1" d=" M 225.04 90.50 C 228.37 97.98 226.65 106.41 227.08 114.32 C 226.55 114.18 225.48 113.88 224.94 113.74 C 224.72 106.00 224.68 98.24 225.04 90.50 Z" />
<path fill="#c9cbd1" d=" M 366.95 103.82 C 372.57 100.63 378.06 97.15 382.59 92.49 C 386.03 92.61 389.48 92.61 392.92 92.73 C 393.13 97.40 392.92 102.08 393.05 106.75 C 390.04 107.17 387.03 107.52 384.02 107.95 C 383.99 106.04 383.96 104.14 383.92 102.23 C 380.52 105.19 376.72 107.62 372.78 109.78 C 370.82 110.30 368.88 110.88 367.01 111.65 C 366.98 109.04 366.97 106.43 366.95 103.82 Z" />
<path fill="#ffffff" d=" M 566.78 100.90 C 568.20 96.31 572.03 92.18 577.02 91.76 C 580.67 90.81 584.12 92.69 586.88 94.91 C 579.71 100.52 572.52 106.12 565.42 111.81 C 564.33 108.16 565.73 104.39 566.78 100.90 Z" />
<path fill="#ffffff" d=" M 194.06 109.98 C 194.22 104.01 194.67 97.76 197.60 92.42 C 199.78 101.06 199.59 110.10 198.77 118.91 C 198.08 123.76 197.68 129.20 194.02 132.86 C 194.07 125.24 194.00 117.61 194.06 109.98 Z" />
<path fill="#c9cbd1" d=" M 320.79 94.75 C 326.50 91.78 334.26 92.42 338.60 97.46 C 343.08 102.51 343.57 109.53 344.06 115.94 C 348.48 115.45 352.78 116.50 356.42 119.07 C 354.70 121.22 353.35 123.63 352.29 126.15 C 349.82 124.74 346.66 122.07 343.83 123.42 C 343.09 128.47 342.31 133.84 338.86 137.86 C 336.85 140.58 333.56 141.74 330.45 142.66 C 330.22 144.16 330.02 145.67 329.87 147.19 C 327.34 146.85 324.78 145.90 323.16 143.84 C 320.86 141.30 321.14 137.66 320.90 134.49 C 322.91 134.54 322.92 132.15 323.64 130.84 C 325.78 124.18 330.79 118.31 337.63 116.24 C 337.85 112.12 337.40 107.90 335.94 104.03 C 334.64 100.41 330.84 97.62 326.93 98.17 C 324.40 98.56 322.58 100.50 320.82 102.18 C 320.82 99.70 320.80 97.23 320.79 94.75 Z" />
<path fill="#ffffff" d=" M 320.82 102.18 C 322.58 100.50 324.40 98.56 326.93 98.17 C 330.84 97.62 334.64 100.41 335.94 104.03 C 337.40 107.90 337.85 112.12 337.63 116.24 C 330.79 118.31 325.78 124.18 323.64 130.84 C 322.92 132.15 322.91 134.54 320.90 134.49 C 320.69 123.72 320.82 112.95 320.82 102.18 Z" />
<path fill="#ffffff" d=" M 503.66 98.77 C 505.38 98.49 507.10 98.15 508.83 97.87 C 509.52 97.94 510.90 98.08 511.59 98.16 C 509.74 100.69 505.60 101.85 503.66 98.77 Z" />
<path fill="#c9cbd1" d=" M 264.50 102.47 C 266.50 99.75 269.96 99.02 273.14 98.93 C 273.18 100.07 273.21 101.22 273.23 102.36 C 269.71 102.19 266.73 104.65 266.12 108.09 C 264.81 114.17 264.74 120.67 266.22 126.72 C 266.97 130.02 270.06 131.90 273.24 132.27 C 273.24 132.95 273.25 134.32 273.25 135.01 C 270.95 134.80 268.32 135.24 266.40 133.64 C 262.47 130.82 261.19 125.68 261.11 121.08 C 261.08 114.80 260.33 107.73 264.50 102.47 Z" />
<path fill="#ffffff" d=" M 372.78 109.78 C 376.72 107.62 380.52 105.19 383.92 102.23 C 383.96 104.14 383.99 106.04 384.02 107.95 C 380.26 108.48 376.49 108.99 372.78 109.78 Z" />
<path fill="#ffffff" d=" M 266.12 108.09 C 266.73 104.65 269.71 102.19 273.23 102.36 C 273.27 112.33 273.25 122.30 273.24 132.27 C 270.06 131.90 266.97 130.02 266.22 126.72 C 264.74 120.67 264.81 114.17 266.12 108.09 Z" />
<path fill="#ffffff" d=" M 393.00 118.76 C 398.78 117.60 404.60 116.46 410.10 114.30 C 410.05 121.51 410.67 129.35 406.81 135.80 C 403.78 140.90 398.60 144.45 393.01 146.23 C 392.99 137.07 393.01 127.91 393.00 118.76 Z" />
<path fill="#9e9390" d=" M 221.20 122.40 C 223.46 120.50 224.42 117.38 227.06 115.91 C 227.09 118.18 227.10 120.46 227.01 122.73 C 225.07 122.64 223.13 122.53 221.20 122.40 Z" />
<path fill="#c9cbd1" d=" M 457.94 122.68 C 461.23 121.08 462.53 116.30 466.48 116.26 C 466.55 124.75 466.57 133.23 466.45 141.71 C 464.54 140.03 462.89 138.05 461.66 135.82 C 462.59 132.31 462.37 128.66 462.25 125.07 C 460.98 125.38 459.71 125.70 458.45 126.01 C 458.23 124.91 458.07 123.80 457.94 122.68 Z" />
<path fill="#c9cbd1" d=" M 383.98 120.15 C 387.00 119.77 390.00 119.26 393.00 118.76 C 393.01 127.91 392.99 137.07 393.01 146.23 C 390.10 147.02 387.12 147.46 384.12 147.61 C 384.15 138.45 384.16 129.30 383.98 120.15 Z" />
<path fill="#ffffff" d=" M 370.71 124.57 C 374.50 121.64 379.41 121.00 383.98 120.15 C 384.16 129.30 384.15 138.45 384.12 147.61 C 379.48 147.66 374.60 146.90 370.83 143.99 C 370.85 137.52 371.02 131.04 370.71 124.57 Z" />
<path fill="#c9cbd1" d=" M 205.00 134.14 C 211.00 131.12 216.50 127.21 221.20 122.40 C 223.13 122.53 225.07 122.64 227.01 122.73 C 226.90 132.58 227.15 142.43 226.93 152.28 C 228.28 152.29 229.64 152.29 231.00 152.29 C 230.99 164.19 231.02 176.09 230.99 187.99 C 228.15 188.04 225.30 188.04 222.46 188.00 C 222.46 169.52 221.99 151.03 222.38 132.56 C 217.10 136.68 211.41 140.50 205.02 142.66 C 204.95 139.82 204.95 136.98 205.00 134.14 Z" />
<path fill="#ffffff" d=" M 343.83 123.42 C 346.66 122.07 349.82 124.74 352.29 126.15 C 349.21 135.03 351.20 145.78 358.42 152.11 C 358.76 158.84 358.29 165.70 356.23 172.15 C 354.35 177.90 348.37 182.94 342.06 181.23 C 335.16 179.95 331.70 172.81 330.80 166.49 C 335.39 166.28 339.96 165.64 344.46 164.67 C 343.49 158.61 342.50 152.56 341.51 146.50 C 337.65 146.99 333.76 147.48 329.87 147.19 C 330.02 145.67 330.22 144.16 330.45 142.66 C 333.56 141.74 336.85 140.58 338.86 137.86 C 342.31 133.84 343.09 128.47 343.83 123.42 Z" />
<path fill="#c9cbd1" d=" M 370.83 143.99 C 364.90 139.24 364.74 129.35 370.71 124.57 C 371.02 131.04 370.85 137.52 370.83 143.99 Z" />
<path fill="#ffffff" d=" M 458.45 126.01 C 459.71 125.70 460.98 125.38 462.25 125.07 C 462.37 128.66 462.59 132.31 461.66 135.82 C 460.09 132.74 459.06 129.41 458.45 126.01 Z" />
<path fill="#ffffff" d=" M 331.39 136.84 C 332.07 132.59 333.50 127.88 337.36 125.45 C 337.03 129.78 335.72 134.86 331.39 136.84 Z" />
<path fill="#c9cbd1" d=" M 425.29 144.29 C 429.91 142.60 436.39 141.81 439.68 146.33 C 444.06 151.56 442.72 158.73 442.91 165.00 C 443.08 170.08 441.12 175.86 436.32 178.25 C 432.04 179.70 426.45 179.31 423.63 175.33 C 419.82 170.05 420.21 163.18 420.25 157.00 C 421.71 157.00 423.18 157.00 424.66 157.00 C 424.56 161.93 424.13 167.14 426.11 171.78 C 427.41 175.03 431.69 176.81 434.74 174.83 C 438.37 172.57 438.59 167.83 438.96 164.01 C 439.11 159.04 439.29 153.61 436.88 149.12 C 434.55 145.09 427.96 145.37 426.29 149.85 C 425.85 148.01 425.52 146.16 425.29 144.29 Z" />
<path fill="#ffffff" d=" M 426.29 149.85 C 427.96 145.37 434.55 145.09 436.88 149.12 C 439.29 153.61 439.11 159.04 438.96 164.01 C 438.59 167.83 438.37 172.57 434.74 174.83 C 431.69 176.81 427.41 175.03 426.11 171.78 C 424.13 167.14 424.56 161.93 424.66 157.00 C 426.18 157.00 427.70 156.99 429.23 156.99 C 428.11 154.67 427.07 152.30 426.29 149.85 Z" />
<path fill="#c9cbd1" d=" M 292.09 155.86 C 295.43 153.72 298.63 151.38 301.41 148.55 C 302.03 151.93 303.25 155.24 305.46 157.93 C 305.30 158.44 304.97 159.46 304.80 159.97 C 304.45 167.52 304.87 175.09 304.64 182.64 C 303.25 182.63 301.86 182.62 300.49 182.61 C 300.44 173.47 300.57 164.34 300.45 155.20 C 297.57 156.56 294.97 158.43 292.13 159.84 C 292.11 158.51 292.10 157.18 292.09 155.86 Z" />
<path fill="#c9cbd1" d=" M 358.42 152.11 C 361.97 155.18 366.35 157.15 370.94 158.08 C 370.91 159.30 370.89 160.52 370.87 161.74 C 369.56 161.86 368.25 161.99 366.94 162.12 C 365.94 170.83 363.21 180.34 355.51 185.48 C 347.69 190.25 336.42 189.88 329.68 183.34 C 325.04 178.80 322.95 172.38 321.88 166.13 C 324.83 166.48 327.82 166.59 330.80 166.49 C 331.70 172.81 335.16 179.95 342.06 181.23 C 348.37 182.94 354.35 177.90 356.23 172.15 C 358.29 165.70 358.76 158.84 358.42 152.11 Z" />
<path fill="#c9cbd1" d=" M 482.95 176.32 C 484.49 166.72 493.98 157.93 504.05 159.80 C 497.09 165.39 490.08 170.93 482.95 176.32 Z" />
<path fill="#c9cbd1" d=" M 267.34 173.37 C 270.97 172.63 275.17 173.40 277.63 176.36 C 280.75 180.14 281.49 185.27 281.55 190.02 C 281.59 195.22 281.38 200.85 278.34 205.30 C 274.72 210.91 265.30 210.91 261.59 205.42 C 259.18 201.77 258.50 197.29 258.41 193.01 C 258.32 188.41 258.43 183.62 260.38 179.37 C 261.68 176.50 264.14 173.96 267.34 173.37 Z" />
<path fill="#ffffff" d=" M 267.19 177.21 C 270.24 175.52 274.21 177.26 275.58 180.34 C 277.41 184.62 277.25 189.45 277.16 194.02 C 276.88 198.10 276.57 203.40 272.39 205.47 C 269.24 207.22 265.33 204.96 264.16 201.82 C 262.44 197.11 262.62 191.95 262.88 187.01 C 263.28 183.49 263.74 179.13 267.19 177.21 Z" />
<path fill="#c9cbd1" d=" M 336.14 190.26 C 341.65 189.86 347.73 189.06 352.58 192.36 C 361.42 197.89 364.50 209.10 364.66 218.96 C 364.95 230.50 365.52 243.06 359.21 253.27 C 355.86 258.93 349.60 262.57 343.02 262.66 C 335.40 263.64 327.51 259.71 323.77 252.98 C 318.62 243.94 318.31 233.13 318.40 222.99 C 318.67 214.55 319.52 205.65 324.41 198.48 C 327.09 194.40 331.29 191.19 336.14 190.26 Z" />
<path fill="#c9cbd1" d=" M 427.72 197.65 C 428.81 195.26 431.91 196.48 433.97 196.17 C 434.22 202.33 433.61 208.53 434.35 214.67 C 431.28 216.99 428.25 219.36 425.25 221.77 C 425.41 218.79 425.41 215.79 425.25 212.81 C 419.92 216.80 414.27 220.42 408.06 222.86 C 407.93 219.99 407.91 217.11 408.08 214.24 C 415.79 210.35 423.15 205.14 427.72 197.65 Z" />
<path fill="#ffffff" d=" M 338.45 197.57 C 344.08 195.55 350.15 199.28 352.69 204.31 C 354.88 208.89 355.23 214.05 356.09 218.98 C 356.44 227.66 356.45 236.51 354.22 244.96 C 352.63 251.12 346.54 257.11 339.77 255.39 C 333.12 254.21 329.34 247.47 328.56 241.25 C 327.04 230.38 326.78 219.08 329.45 208.36 C 330.58 203.67 333.50 198.88 338.45 197.57 Z" />
</svg>
