<?xml version="1.0" encoding="UTF-8"?>
<!DOCTYPE svg PUBLIC "-//W3C//DTD SVG 1.1//EN" "http://www.w3.org/Graphics/SVG/1.1/DTD/svg11.dtd">
<!-- Creator: CorelDRAW -->
<svg xmlns="http://www.w3.org/2000/svg" xml:space="preserve" width="7.5cm" height="5cm" style="shape-rendering:geometricPrecision; text-rendering:geometricPrecision; image-rendering:optimizeQuality; fill-rule:evenodd; clip-rule:evenodd"
viewBox="0 0 7.5 5"
 xmlns:xlink="http://www.w3.org/1999/xlink">
 <defs>
  <style type="text/css">
   <![CDATA[
    .fil2 {fill:#373435;fill-rule:nonzero}
    .fil3 {fill:#201E1E;fill-rule:nonzero}
    .fil0 {fill:url(#id31);fill-rule:nonzero}
    .fil1 {fill:url(#id32);fill-rule:nonzero}
    .fil4 {fill:url(#id33);fill-rule:nonzero}
   ]]>
  </style>
    <pattern id="id0" patternUnits="userSpaceOnUse" x="1.10121" y="-3.31206" width="5" height="5">
     <image id="_250152728" x="0" y="0" width="5" height="5" xlink:href="logo2_Images\logo2_ImgID1.png"/>
    </pattern>
    <pattern id="id1" patternUnits="userSpaceOnUse" x="1.87482" y="-3.36345" width="5" height="5">
     <image id="_250153760" x="0" y="0" width="5" height="5" xlink:href="logo2_Images\logo2_ImgID2.png"/>
    </pattern>
    <pattern id="id2" patternUnits="userSpaceOnUse" x="2.52854" y="-3.55703" width="5" height="5">
     <image id="_250152872" x="0" y="0" width="5" height="5" xlink:href="logo2_Images\logo2_ImgID3.png"/>
    </pattern>
    <pattern id="id3" patternUnits="userSpaceOnUse" x="1.57783" y="-3.11085" width="5" height="5">
     <image id="_250153976" x="0" y="0" width="5" height="5" xlink:href="logo2_Images\logo2_ImgID4.png"/>
    </pattern>
    <pattern id="id4" patternUnits="userSpaceOnUse" x="2.11341" y="-2.61012" width="5" height="5">
     <image id="_250153664" x="0" y="0" width="5" height="5" xlink:href="logo2_Images\logo2_ImgID5.png"/>
    </pattern>
    <pattern id="id5" patternUnits="userSpaceOnUse" x="2.52152" y="-2.9007" width="5" height="5">
     <image id="_250669520" x="0" y="0" width="5" height="5" xlink:href="logo2_Images\logo2_ImgID6.png"/>
    </pattern>
    <pattern id="id6" patternUnits="userSpaceOnUse" x="3.29513" y="-2.9521" width="5" height="5">
     <image id="_250668656" x="0" y="0" width="5" height="5" xlink:href="logo2_Images\logo2_ImgID7.png"/>
    </pattern>
    <pattern id="id7" patternUnits="userSpaceOnUse" x="3.83765" y="-3.14567" width="5" height="5">
     <image id="_250668752" x="0" y="0" width="5" height="5" xlink:href="logo2_Images\logo2_ImgID8.png"/>
    </pattern>
    <pattern id="id8" patternUnits="userSpaceOnUse" x="2.99814" y="-2.6995" width="5" height="5">
     <image id="_250668848" x="0" y="0" width="5" height="5" xlink:href="logo2_Images\logo2_ImgID9.png"/>
    </pattern>
    <pattern id="id9" patternUnits="userSpaceOnUse" x="3.53372" y="-2.19877" width="5" height="5">
     <image id="_250668944" x="0" y="0" width="5" height="5" xlink:href="logo2_Images\logo2_ImgID10.png"/>
    </pattern>
    <pattern id="id10" patternUnits="userSpaceOnUse" x="3.47996" y="-3.32942" width="5" height="5">
     <image id="_250663208" x="0" y="0" width="5" height="5" xlink:href="logo2_Images\logo2_ImgID11.png"/>
    </pattern>
    <pattern id="id11" patternUnits="userSpaceOnUse" x="2.49989" y="-2.2038" width="5" height="5">
     <image id="_594681960" x="0" y="0" width="5" height="5" xlink:href="logo2_Images\logo2_ImgID12.png"/>
    </pattern>
    <pattern id="id12" patternUnits="userSpaceOnUse" x="3.2735" y="-2.2552" width="5" height="5">
     <image id="_594681864" x="0" y="0" width="5" height="5" xlink:href="logo2_Images\logo2_ImgID13.png"/>
    </pattern>
    <pattern id="id13" patternUnits="userSpaceOnUse" x="3.81601" y="-2.44877" width="5" height="5">
     <image id="_594681768" x="0" y="0" width="5" height="5" xlink:href="logo2_Images\logo2_ImgID14.png"/>
    </pattern>
    <pattern id="id14" patternUnits="userSpaceOnUse" x="2.97652" y="-2.00259" width="5" height="5">
     <image id="_594681672" x="0" y="0" width="5" height="5" xlink:href="logo2_Images\logo2_ImgID15.png"/>
    </pattern>
    <pattern id="id15" patternUnits="userSpaceOnUse" x="3.51209" y="-1.50187" width="5" height="5">
     <image id="_594681576" x="0" y="0" width="5" height="5" xlink:href="logo2_Images\logo2_ImgID16.png"/>
    </pattern>
    <pattern id="id16" patternUnits="userSpaceOnUse" x="3.45833" y="-2.63252" width="5" height="5">
     <image id="_594681480" x="0" y="0" width="5" height="5" xlink:href="logo2_Images\logo2_ImgID17.png"/>
    </pattern>
    <pattern id="id17" patternUnits="userSpaceOnUse" x="4.30921" y="-1.73843" width="5" height="5">
     <image id="_594681384" x="0" y="0" width="5" height="5" xlink:href="logo2_Images\logo2_ImgID18.png"/>
    </pattern>
    <pattern id="id18" patternUnits="userSpaceOnUse" x="3.94183" y="-2.48935" width="5" height="5">
     <image id="_594681288" x="0" y="0" width="5" height="5" xlink:href="logo2_Images\logo2_ImgID19.png"/>
    </pattern>
    <pattern id="id19" patternUnits="userSpaceOnUse" x="4.71544" y="-2.54075" width="5" height="5">
     <image id="_594681192" x="0" y="0" width="5" height="5" xlink:href="logo2_Images\logo2_ImgID20.png"/>
    </pattern>
    <pattern id="id20" patternUnits="userSpaceOnUse" x="5.25796" y="-2.73433" width="5" height="5">
     <image id="_594681096" x="0" y="0" width="5" height="5" xlink:href="logo2_Images\logo2_ImgID21.png"/>
    </pattern>
    <pattern id="id21" patternUnits="userSpaceOnUse" x="4.41845" y="-2.28814" width="5" height="5">
     <image id="_594681000" x="0" y="0" width="5" height="5" xlink:href="logo2_Images\logo2_ImgID22.png"/>
    </pattern>
    <pattern id="id22" patternUnits="userSpaceOnUse" x="4.95406" y="-2.14088" width="5" height="5">
     <image id="_594680904" x="0" y="0" width="5" height="5" xlink:href="logo2_Images\logo2_ImgID23.png"/>
    </pattern>
    <pattern id="id23" patternUnits="userSpaceOnUse" x="4.90027" y="-2.91807" width="5" height="5">
     <image id="_594680808" x="0" y="0" width="5" height="5" xlink:href="logo2_Images\logo2_ImgID24.png"/>
    </pattern>
    <pattern id="id24" patternUnits="userSpaceOnUse" x="4.61021" y="-3.19454" width="5" height="5">
     <image id="_594680712" x="0" y="0" width="5" height="5" xlink:href="logo2_Images\logo2_ImgID25.png"/>
    </pattern>
    <pattern id="id25" patternUnits="userSpaceOnUse" x="5.38382" y="-3.24594" width="5" height="5">
     <image id="_594680616" x="0" y="0" width="5" height="5" xlink:href="logo2_Images\logo2_ImgID26.png"/>
    </pattern>
    <pattern id="id26" patternUnits="userSpaceOnUse" x="6.03754" y="-3.43951" width="5" height="5">
     <image id="_594680520" x="0" y="0" width="5" height="5" xlink:href="logo2_Images\logo2_ImgID27.png"/>
    </pattern>
    <pattern id="id27" patternUnits="userSpaceOnUse" x="5.08684" y="-2.99333" width="5" height="5">
     <image id="_594680424" x="0" y="0" width="5" height="5" xlink:href="logo2_Images\logo2_ImgID28.png"/>
    </pattern>
    <pattern id="id28" patternUnits="userSpaceOnUse" x="5.62241" y="-2.70444" width="5" height="5">
     <image id="_594680328" x="0" y="0" width="5" height="5" xlink:href="logo2_Images\logo2_ImgID29.png"/>
    </pattern>
    <pattern id="id29" patternUnits="userSpaceOnUse" x="2.99126" y="-3.51565" width="5" height="5">
     <image id="_594680232" x="0" y="0" width="5" height="5" xlink:href="logo2_Images\logo2_ImgID30.png"/>
    </pattern>
    <pattern id="id30" patternUnits="userSpaceOnUse" x="4.30152" y="-3.16767" width="5" height="5">
     <image id="_594680136" x="0" y="0" width="5" height="5" xlink:href="logo2_Images\logo2_ImgID31.png"/>
    </pattern>
  <linearGradient id="id31" gradientUnits="userSpaceOnUse" x1="2.28627" y1="2.08401" x2="3.22687" y2="2.08401">
   <stop offset="0" style="stop-color:#00AFEF"/>
   <stop offset="1" style="stop-color:#201E1E"/>
  </linearGradient>
  <linearGradient id="id32" gradientUnits="userSpaceOnUse" x1="3.80187" y1="2.10284" x2="4.50032" y2="2.10284">
   <stop offset="0" style="stop-color:#201E1E"/>
   <stop offset="1" style="stop-color:#00AFEF"/>
  </linearGradient>
  <linearGradient id="id33" gradientUnits="userSpaceOnUse" x1="3.85558" y1="2.59761" x2="3.76849" y2="1.0305">
   <stop offset="0" style="stop-color:#373435"/>
   <stop offset="1" style="stop-color:#84716B"/>
  </linearGradient>
 </defs>
 <g id="Layer_x0020_1">
  <metadata id="CorelCorpID_0Corel-Layer"/>
  <g id="_594675600">
   <path id="_250152728" style="fill:url(#id0);fill-rule:nonzero" d="M1.33618 1.68794l-0.0782677 0 0 -0.443957 0.0782677 0 0 0.443957zm-0.197643 -0.443957c-0.0131791,0.00675197 -0.0256053,0.0124016 -0.0373228,0.0169242l0 -0.0169242 0.0373228 0z"/>
   <path id="_250153760" style="fill:url(#id1);fill-rule:nonzero" d="M1.99231 1.63655l-0.0391339 0 0 -0.263268c-0.00943406,0.00947343 -0.0217569,0.0189567 -0.037062,0.0284449 -0.0153691,0.0094685 -0.0291142,0.0165994 -0.0412943,0.0213091l0 -0.039877c0.0219144,-0.0108957 0.0410728,-0.024065 0.0574803,-0.0394931 0.0163386,-0.0155118 0.028002,-0.0304823 0.0348327,-0.0450541l0.0251772 0 0 0.337938z"/>
   <polygon id="_250152872" style="fill:url(#id2);fill-rule:nonzero" points="2.58409,1.44297 2.52854,1.44297 2.52854,1.24398 2.58409,1.24398 "/>
   <path id="_250153976" style="fill:url(#id3);fill-rule:nonzero" d="M1.57783 1.71747c0,-0.0397982 0.00386319,-0.0718406 0.0116634,-0.0960581 0.00771654,-0.0242864 0.0193061,-0.0430118 0.0345965,-0.0561713 0.0153051,-0.0131693 0.0345374,-0.0197441 0.0577165,-0.0197441 0.0171457,0 0.0321555,0.00367618 0.0450689,0.0109596 0.0129281,0.00721949 0.0235482,0.0177116 0.0320079,0.0314272 0.00839075,0.0137057 0.015,0.0303937 0.0197589,0.050064 0.00481791,0.0196654 0.0071998,0.0461516 0.0071998,0.0795226 0,0.0394931 -0.00386319,0.0713091 -0.0115059,0.0955955 -0.00772638,0.0242864 -0.0192421,0.0430217 -0.0345325,0.0562598 -0.0153051,0.0132382 -0.0346112,0.0198228 -0.057997,0.0198228 -0.030748,0 -0.0548819,-0.0115945 -0.0724163,-0.0348671 -0.0210138,-0.0279675 -0.03156,-0.0736516 -0.03156,-0.136811zm0.040251 0c0,0.055251 0.00617126,0.091998 0.0184203,0.110335 0.0122539,0.0182579 0.0273278,0.0274163 0.0453051,0.0274163 0.0180413,0 0.0331102,-0.00924705 0.0453642,-0.0275837 0.0122638,-0.0183366 0.0184203,-0.0550837 0.0184203,-0.110167 0,-0.0553937 -0.0061565,-0.0922146 -0.0184203,-0.110394 -0.0122539,-0.0182579 -0.0274705,-0.0273425 -0.0457431,-0.0273425 -0.0180413,0 -0.032377,0.00807087 -0.0431447,0.0241289 -0.0134449,0.0204478 -0.0202018,0.0583711 -0.0202018,0.113607z"/>
   <path id="_250153664" style="fill:url(#id4);fill-rule:nonzero" d="M2.11341 2.04654c0,-0.0796161 0.00771654,-0.143706 0.0233169,-0.192136 0.0154478,-0.0485728 0.0386171,-0.0860335 0.0692175,-0.112352 0.0305955,-0.0263287 0.0690699,-0.0394882 0.115404,-0.0394882 0.034311,0 0.064311,0.0073622 0.0901624,0.0219341 0.0258415,0.0144144 0.0470817,0.0354134 0.0640157,0.0628445 0.0167766,0.0274163 0.03,0.0608022 0.039503,0.100138 0.00966535,0.0393307 0.0144094,0.0922933 0.0144094,0.15906 0,0.0789813 -0.00772638,0.142603 -0.0230167,0.191176 -0.0154528,0.0485876 -0.0384744,0.0860335 -0.0690699,0.11252 -0.0306004,0.0264862 -0.0692175,0.0396457 -0.116004,0.0396457 -0.0614911,0 -0.109764,-0.0231841 -0.144813,-0.0697293 -0.0420423,-0.0559498 -0.063125,-0.147313 -0.063125,-0.273612zm0.080502 0c0,0.110477 0.0123228,0.183971 0.0368406,0.22064 0.024503,0.0365157 0.0546506,0.0548474 0.0905955,0.0548474 0.0360925,0 0.0662451,-0.0184892 0.090753,-0.0551575 0.0245128,-0.0366683 0.0368406,-0.110167 0.0368406,-0.22033 0,-0.110797 -0.0123278,-0.184449 -0.0368406,-0.220807 -0.0245079,-0.0365157 -0.0549557,-0.0546949 -0.0914911,-0.0546949 -0.0360925,0 -0.0647638,0.0161467 -0.0862992,0.0482628 -0.0268848,0.0409006 -0.0403986,0.116752 -0.0403986,0.227239z"/>
   <path id="_250669520" style="fill:url(#id5);fill-rule:nonzero" d="M2.75649 2.0993l-0.0782677 0 0 -0.52655c-0.0188632,0.0189715 -0.0435236,0.0379281 -0.074124,0.0568947 -0.030748,0.0189567 -0.0582185,0.0332136 -0.0825738,0.042623l0 -0.0797687c0.0438091,-0.0217815 0.0821309,-0.0481102 0.114961,-0.0789813 0.0326722,-0.0310285 0.055999,-0.0609596 0.0696604,-0.0900984l0.0503445 0 0 0.675881z"/>
   <path id="_250668656" style="fill:url(#id6);fill-rule:nonzero" d="M3.41262 2.0479l-0.0391339 0 0 -0.263263c-0.00943406,0.00947343 -0.0217569,0.0189567 -0.037062,0.0284449 -0.0153691,0.0094685 -0.0291142,0.0165994 -0.0412943,0.0213091l0 -0.0398819c0.0219144,-0.0108907 0.0410728,-0.024065 0.0574803,-0.0394882 0.0163386,-0.0155118 0.028002,-0.0304823 0.0348327,-0.0450541l0.0251772 0 0 0.337933z"/>
   <path id="_250668752" style="fill:url(#id7);fill-rule:nonzero" d="M4.0044 1.85433l-0.0555561 0 0 -0.373696c-0.0133858,0.0134596 -0.0308809,0.0269193 -0.0525935,0.0403789 -0.0218209,0.0134498 -0.0413238,0.0235778 -0.0586073,0.030251l0 -0.0566142c0.0310925,-0.0154626 0.0582874,-0.0341486 0.0815846,-0.0560482 0.023189,-0.0220226 0.0397441,-0.0432677 0.049439,-0.0639567l0.0357333 0 0 0.479685z"/>
   <path id="_250668848" style="fill:url(#id8);fill-rule:nonzero" d="M2.99814 2.12882c0,-0.0397982 0.00386319,-0.0718406 0.0116634,-0.0960581 0.00771654,-0.0242864 0.0193061,-0.0430118 0.0345965,-0.0561713 0.0153051,-0.0131742 0.0345374,-0.0197441 0.0577165,-0.0197441 0.0171457,0 0.0321555,0.00367126 0.0450689,0.0109596 0.0129232,0.00721949 0.0235482,0.0177116 0.0320079,0.0314272 0.00839075,0.0137057 0.015,0.0303937 0.0197589,0.050064 0.00481791,0.0196654 0.0071998,0.0461516 0.0071998,0.0795226 0,0.0394931 -0.00386319,0.0713091 -0.0115059,0.0955955 -0.00772638,0.0242864 -0.0192421,0.0430217 -0.0345374,0.0562598 -0.0153002,0.0132382 -0.0346063,0.0198228 -0.0579921,0.0198228 -0.030748,0 -0.0548819,-0.0115945 -0.0724213,-0.034872 -0.0210089,-0.0279626 -0.0315551,-0.0736467 -0.0315551,-0.136806zm0.040251 0c0,0.055251 0.00616634,0.091998 0.0184203,0.110335 0.0122539,0.0182579 0.0273228,0.0274163 0.0453051,0.0274163 0.0180413,0 0.0331102,-0.00924705 0.0453642,-0.0275837 0.0122638,-0.0183366 0.0184203,-0.0550837 0.0184203,-0.110167 0,-0.0553937 -0.0061565,-0.0922195 -0.0184203,-0.110399 -0.0122539,-0.018253 -0.0274705,-0.0273376 -0.0457431,-0.0273376 -0.0180413,0 -0.032377,0.00807087 -0.0431447,0.0241289 -0.0134449,0.0204478 -0.0202018,0.0583711 -0.0202018,0.113607z"/>
   <path id="_250668944" style="fill:url(#id9);fill-rule:nonzero" d="M3.53372 2.45789c0,-0.0796161 0.00771654,-0.143706 0.0233169,-0.192136 0.0154478,-0.0485728 0.0386171,-0.0860335 0.0692126,-0.112352 0.0306004,-0.0263287 0.0690699,-0.0394882 0.115408,-0.0394882 0.034311,0 0.064311,0.0073622 0.0901624,0.0219341 0.0258415,0.0144144 0.0470817,0.0354134 0.0640157,0.0628445 0.0167766,0.0274163 0.03,0.0608022 0.039503,0.100133 0.00966535,0.0393356 0.0144094,0.0922982 0.0144094,0.159065 0,0.0789813 -0.00772638,0.142603 -0.0230167,0.191176 -0.0154528,0.0485876 -0.0384744,0.0860335 -0.0690699,0.11252 -0.0306004,0.0264862 -0.0692175,0.0396457 -0.116004,0.0396457 -0.0614911,0 -0.109764,-0.023189 -0.144813,-0.0697293 -0.0420423,-0.0559498 -0.063125,-0.147313 -0.063125,-0.273612zm0.080502 0c0,0.110477 0.0123228,0.183971 0.0368406,0.22064 0.024503,0.0365157 0.0546457,0.0548474 0.0905955,0.0548474 0.0360925,0 0.0662451,-0.0184892 0.090753,-0.0551575 0.0245128,-0.0366683 0.0368356,-0.110167 0.0368356,-0.22033 0,-0.110797 -0.0123228,-0.184449 -0.0368356,-0.220807 -0.0245079,-0.0365157 -0.0549557,-0.0546949 -0.0914911,-0.0546949 -0.0360925,0 -0.0647638,0.0161467 -0.0862992,0.0482628 -0.0268848,0.0409006 -0.0403986,0.116752 -0.0403986,0.227239z"/>
   <path id="_250663208" style="fill:url(#id10);fill-rule:nonzero" d="M3.47996 1.43839c0,-0.0582283 0.00522146,-0.1278 0.0377116,-0.177298l0.0622392 0.00395177c-0.0437205,0.032997 -0.0455118,0.123228 -0.0455118,0.173346 0,0.0747146 0.00833661,0.124409 0.0249065,0.149208 0.0165748,0.02469 0.0369636,0.0370915 0.0612697,0.0370915 0.0244094,0 0.0447933,-0.0125 0.061373,-0.0372982 0.0165699,-0.0247982 0.0249065,-0.074498 0.0249065,-0.149001 0,-0.0749163 -0.00833661,-0.124724 -0.0249065,-0.149311 -0.00487205,-0.00725394 -0.0100837,-0.01344 -0.0156496,-0.0185482l0.0650148 0.00411909c0.0259055,0.0502313 0.0299803,0.107613 0.0299803,0.16374 0,0.0693602 -0.00755906,0.158036 -0.0622736,0.205369 -0.0206939,0.0179134 -0.0468061,0.0268209 -0.0784449,0.0268209 -0.120807,0 -0.140615,-0.130778 -0.140615,-0.23219z"/>
   <path id="_594681960" style="fill:url(#id11);fill-rule:nonzero" d="M2.73486 2.7962l-0.0782726 0 0 -0.52655c-0.0188583,0.0189715 -0.0435236,0.0379281 -0.0741191,0.0568947 -0.030748,0.0189567 -0.0582185,0.0332136 -0.0825738,0.042623l0 -0.0797687c0.0438041,-0.0217815 0.0821309,-0.0481102 0.114961,-0.0789813 0.0326722,-0.0310285 0.0559941,-0.0609596 0.0696604,-0.0900984l0.0503445 0 0 0.675881z"/>
   <path id="_594681864" style="fill:url(#id12);fill-rule:nonzero" d="M3.39099 2.7448l-0.0391388 0 0 -0.263263c-0.00942913,0.00947343 -0.0217569,0.0189567 -0.0370571,0.0284449 -0.0153691,0.0094685 -0.0291142,0.0165994 -0.0412943,0.0213091l0 -0.0398819c0.0219144,-0.0108907 0.0410728,-0.024065 0.0574803,-0.0394882 0.0163386,-0.0155118 0.027997,-0.0304823 0.0348278,-0.0450541l0.0251821 0 0 0.337933z"/>
   <path id="_594681768" style="fill:url(#id13);fill-rule:nonzero" d="M3.98278 2.55123l-0.0555561 0 0 -0.373696c-0.0133907,0.0134596 -0.0308809,0.0269193 -0.0525984,0.0403789 -0.0218159,0.0134498 -0.0413238,0.0235778 -0.0586073,0.030251l0 -0.0566142c0.0310925,-0.0154626 0.0582923,-0.0341486 0.0815846,-0.0560482 0.023189,-0.0220226 0.039749,-0.0432677 0.049439,-0.0639567l0.0357382 0 0 0.479685z"/>
   <path id="_594681672" style="fill:url(#id14);fill-rule:nonzero" d="M2.97652 2.82573c0,-0.0397982 0.00386319,-0.0718406 0.0116634,-0.0960581 0.00771654,-0.0242864 0.0193012,-0.0430118 0.0345965,-0.0561713 0.0153051,-0.0131742 0.0345374,-0.0197441 0.0577116,-0.0197441 0.0171457,0 0.0321555,0.00367126 0.0450738,0.0109596 0.0129232,0.00721949 0.0235433,0.0177116 0.0320079,0.0314272 0.00839075,0.0137057 0.015,0.0303937 0.0197539,0.050064 0.00482283,0.0196654 0.0071998,0.0461516 0.0071998,0.0795226 0,0.0394931 -0.00386319,0.0713091 -0.011501,0.0955955 -0.00772638,0.0242864 -0.0192421,0.0430217 -0.0345374,0.0562598 -0.0153051,0.0132382 -0.0346063,0.0198228 -0.057997,0.0198228 -0.0307431,0 -0.0548819,-0.0115945 -0.0724163,-0.034872 -0.0210089,-0.0279626 -0.0315551,-0.0736467 -0.0315551,-0.136806zm0.040251 0c0,0.055251 0.00616634,0.091998 0.0184203,0.110335 0.012249,0.0182579 0.0273228,0.0274163 0.0453002,0.0274163 0.0180413,0 0.0331152,-0.00924705 0.0453691,-0.0275837 0.0122589,-0.0183366 0.0184203,-0.0550837 0.0184203,-0.110167 0,-0.0553937 -0.00616142,-0.0922195 -0.0184203,-0.110399 -0.0122539,-0.018253 -0.0274754,-0.0273376 -0.045748,-0.0273376 -0.0180413,0 -0.032377,0.00807087 -0.0431447,0.0241289 -0.01344,0.0204478 -0.0201969,0.0583711 -0.0201969,0.113607z"/>
   <path id="_594681576" style="fill:url(#id15);fill-rule:nonzero" d="M3.51209 3.15479c0,-0.0796161 0.00771161,-0.143706 0.023312,-0.192136 0.0154528,-0.0485728 0.038622,-0.0860335 0.0692175,-0.112352 0.0306004,-0.0263287 0.0690699,-0.0394882 0.115404,-0.0394882 0.0343159,0 0.064311,0.0073622 0.0901624,0.0219341 0.0258415,0.0144144 0.0470817,0.0354134 0.0640207,0.0628445 0.0167766,0.0274163 0.0299951,0.0608022 0.039503,0.100133 0.00966043,0.0393356 0.0144094,0.0922982 0.0144094,0.159065 0,0.0789813 -0.00772638,0.142603 -0.0230217,0.191176 -0.0154528,0.0485876 -0.0384695,0.0860335 -0.0690699,0.11252 -0.0305955,0.0264862 -0.0692175,0.0396457 -0.116004,0.0396457 -0.0614911,0 -0.109759,-0.023189 -0.144813,-0.0697293 -0.0420374,-0.0559498 -0.0631201,-0.147313 -0.0631201,-0.273612zm0.080497 0c0,0.110477 0.0123278,0.183971 0.0368406,0.22064 0.0245079,0.0365157 0.0546506,0.0548474 0.0905955,0.0548474 0.0360925,0 0.06625,-0.0184892 0.090753,-0.0551575 0.0245177,-0.0366683 0.0368406,-0.110167 0.0368406,-0.22033 0,-0.110797 -0.0123228,-0.184449 -0.0368406,-0.220807 -0.024503,-0.0365157 -0.0549557,-0.0546949 -0.0914862,-0.0546949 -0.0360974,0 -0.0647687,0.0161467 -0.0863041,0.0482628 -0.0268799,0.0409006 -0.0403986,0.116752 -0.0403986,0.227239z"/>
   <path id="_594681480" style="fill:url(#id16);fill-rule:nonzero" d="M3.45833 2.13529c0,-0.0538287 0.00522146,-0.0971752 0.0157677,-0.129921 0.0104528,-0.0328494 0.0261122,-0.0581693 0.0468061,-0.0759744 0.0206939,-0.01781 0.0467028,-0.0267077 0.0780364,-0.0267077 0.0232087,0 0.0434941,0.00497539 0.0609793,0.0148376 0.0174705,0.00974902 0.0318258,0.0239419 0.0432776,0.0424902 0.0113583,0.0185433 0.0202953,0.041122 0.0267274,0.0677165 0.00652559,0.0265994 0.00973425,0.0624163 0.00973425,0.107559 0,0.0534154 -0.00522146,0.096437 -0.0155659,0.129286 -0.0104429,0.0328494 -0.0260089,0.0581791 -0.0467028,0.0760827 -0.0206939,0.0179134 -0.0468061,0.0268209 -0.0784498,0.0268209 -0.0415748,0 -0.0742175,-0.0156939 -0.0979183,-0.0471654 -0.0284301,-0.0378248 -0.0426919,-0.0996161 -0.0426919,-0.185025zm0.054439 0c0,0.0747146 0.00833661,0.124409 0.0249016,0.149208 0.0165797,0.02469 0.0369685,0.0370915 0.0612697,0.0370915 0.0244094,0 0.0447982,-0.0125 0.061378,-0.0372982 0.016565,-0.0247982 0.0249016,-0.074498 0.0249016,-0.149001 0,-0.0749163 -0.00833661,-0.124724 -0.0249016,-0.149311 -0.0165797,-0.02469 -0.0371654,-0.0369833 -0.0618701,-0.0369833 -0.0244094,0 -0.0437992,0.0109154 -0.0583563,0.0326378 -0.018189,0.0276624 -0.0273228,0.0789469 -0.0273228,0.153656z"/>
   <path id="_594681384" style="fill:url(#id17);fill-rule:nonzero" d="M4.46591 3.26157l0 -0.238588c-0.0188632,0.0189665 -0.0435236,0.0379232 -0.074124,0.0568947 -0.0307431,0.0189567 -0.0582185,0.0332136 -0.0825738,0.042623l0 -0.0797736c0.0679134,-0.0337598 0.150605,-0.0965157 0.184621,-0.169075l0.0503445 0 0 0.322854 -0.0782677 0.065064z"/>
   <path id="_594681288" style="fill:url(#id18);fill-rule:nonzero" d="M4.1768 2.51065l-0.0782726 0 0 -0.52655c-0.0188583,0.0189715 -0.0435236,0.0379281 -0.0741191,0.0568947 -0.030748,0.0189567 -0.0582185,0.0332136 -0.0825738,0.042623l0 -0.0797736c0.0438091,-0.0217766 0.0821309,-0.0481053 0.114961,-0.0789764 0.0326722,-0.0310285 0.055999,-0.0609596 0.0696604,-0.0900984l0.0503445 0 0 0.675881z"/>
   <path id="_594681192" style="fill:url(#id19);fill-rule:nonzero" d="M4.83293 2.45925l-0.0391339 0 0 -0.263263c-0.00943406,0.00947343 -0.0217569,0.0189567 -0.037062,0.02844 -0.0153691,0.00947343 -0.0291142,0.0166043 -0.0412943,0.021314l0 -0.0398819c0.0219144,-0.0108907 0.0410728,-0.024065 0.0574803,-0.0394882 0.0163386,-0.0155167 0.028002,-0.0304823 0.0348327,-0.0450541l0.0251772 0 0 0.337933z"/>
   <path id="_594681096" style="fill:url(#id20);fill-rule:nonzero" d="M5.42471 2.26567l-0.0555561 0 0 -0.373691c-0.0133858,0.0134596 -0.0308809,0.0269193 -0.0525935,0.0403789 -0.0218209,0.0134449 -0.0413287,0.0235778 -0.0586073,0.030251l0 -0.0566142c0.0310925,-0.0154626 0.0582874,-0.0341535 0.0815846,-0.0560531 0.0231841,-0.0220177 0.0397441,-0.0432628 0.049439,-0.0639518l0.0357333 0 0 0.47968z"/>
   <path id="_594681000" style="fill:url(#id21);fill-rule:nonzero" d="M4.41845 2.54018c0,-0.0397982 0.00386319,-0.0718406 0.0116634,-0.0960581 0.00771654,-0.0242913 0.0193061,-0.0430118 0.0345965,-0.0561713 0.0153051,-0.0131742 0.0345374,-0.019749 0.0577116,-0.019749 0.0171506,0 0.0321604,0.00367618 0.0450738,0.0109646 0.0129232,0.00721949 0.0235433,0.0177116 0.0320079,0.0314272 0.00839075,0.0137057 0.015,0.0303937 0.0197589,0.050064 0.00481791,0.0196654 0.0071998,0.0461516 0.0071998,0.0795226 0,0.0394931 -0.00386319,0.0713091 -0.0115059,0.0955955 -0.00772638,0.0242864 -0.0192421,0.0430217 -0.0345374,0.0562598 -0.0153002,0.0132382 -0.0346063,0.0198228 -0.057997,0.0198228 -0.0307431,0 -0.054877,-0.0115945 -0.0724163,-0.034872 -0.0210089,-0.0279626 -0.0315551,-0.0736467 -0.0315551,-0.136806zm0.040251 0c0,0.055251 0.00616634,0.091998 0.0184203,0.110335 0.0122539,0.018253 0.0273228,0.0274163 0.0453002,0.0274163 0.0180413,0 0.0331152,-0.00925197 0.0453691,-0.0275837 0.0122638,-0.0183366 0.0184203,-0.0550837 0.0184203,-0.110167 0,-0.0553937 -0.0061565,-0.0922195 -0.0184203,-0.110399 -0.0122539,-0.0182579 -0.0274754,-0.0273376 -0.045748,-0.0273376 -0.0180413,0 -0.032377,0.00807087 -0.0431447,0.0241289 -0.01344,0.0204478 -0.0201969,0.0583711 -0.0201969,0.113607z"/>
   <path id="_594680904" style="fill:url(#id22);fill-rule:nonzero" d="M4.95406 2.85912c0.000757874,-0.101181 0.0137795,-0.226673 0.0924902,-0.29437 0.0305906,-0.0263189 0.0690699,-0.0394882 0.115404,-0.0394882 0.0513238,0 0.0960679,0.0168996 0.130354,0.053435l-0.057628 0.0469882c-0.0196654,-0.0196998 -0.0449803,-0.0319488 -0.0734596,-0.0319488 -0.0967323,0 -0.117406,0.111388 -0.12375,0.193666 -0.00191929,0.00144193 -0.00380413,0.00295276 -0.00563484,0.00454232 -0.0206201,0.0178248 -0.0412402,0.0356693 -0.0618602,0.0535039 -0.00588091,0.0044439 -0.0116486,0.00934055 -0.0159154,0.0136713z"/>
   <path id="_594680808" style="fill:url(#id23);fill-rule:nonzero" d="M4.90027 1.84974c0,-0.0538287 0.00522146,-0.0971752 0.0157677,-0.129921 0.0104528,-0.0328494 0.0261122,-0.0581742 0.0468061,-0.0759744 0.0206939,-0.01781 0.0467028,-0.0267077 0.0780364,-0.0267077 0.0232136,0 0.0434941,0.00497539 0.0609793,0.0148376 0.0174705,0.00974902 0.0318307,0.0239419 0.0432825,0.0424902 0.0113533,0.0185433 0.0202904,0.041122 0.0267224,0.0677165 0.00652559,0.0265994 0.00973425,0.0624114 0.00973425,0.107559 0,0.0534154 -0.00521654,0.096437 -0.0155659,0.129286 -0.0104429,0.0328494 -0.0260089,0.0581791 -0.0467028,0.0760827 -0.0206939,0.0179134 -0.0468061,0.0268209 -0.0784498,0.0268209 -0.0415748,0 -0.0742126,-0.0156939 -0.0979183,-0.0471654 -0.0284301,-0.0378248 -0.0426919,-0.0996161 -0.0426919,-0.185025zm0.054439 0c0,0.0747146 0.00833661,0.124409 0.0249016,0.149208 0.0165797,0.02469 0.0369685,0.0370915 0.0612697,0.0370915 0.0244094,0 0.0447982,-0.0125049 0.061378,-0.0373031 0.0165699,-0.0247982 0.0249016,-0.0744931 0.0249016,-0.148996 0,-0.0749163 -0.00833169,-0.124724 -0.0249016,-0.149311 -0.0165797,-0.02469 -0.0371654,-0.0369833 -0.0618701,-0.0369833 -0.0244094,0 -0.0437992,0.0109154 -0.0583563,0.0326378 -0.018189,0.0276624 -0.0273228,0.0789469 -0.0273228,0.153656z"/>
   <path id="_594680712" style="fill:url(#id24);fill-rule:nonzero" d="M4.84518 1.80546l-0.0782677 0 0 -0.485059 0.0782677 0.00275591 0 0.482303zm-0.126403 -0.486757c-0.0328691,0.0230217 -0.0717323,0.045502 -0.108563,0.0597244l0 -0.0635679 0.108563 0.0038435z"/>
   <path id="_594680616" style="fill:url(#id25);fill-rule:nonzero" d="M5.50131 1.75406l-0.0391339 0 0 -0.263263c-0.00942913,0.00947343 -0.0217569,0.0189567 -0.037062,0.02844 -0.0153642,0.00947343 -0.0291142,0.0166043 -0.0412894,0.0213091l0 -0.039877c0.0219144,-0.0108957 0.0410679,-0.024065 0.0574803,-0.0394931 0.0163337,-0.0155118 0.027997,-0.0304823 0.0348278,-0.0450541l0.0251772 0 0 0.337938z"/>
   <polygon id="_594680520" style="fill:url(#id26);fill-rule:nonzero" points="6.0931,1.56049 6.03754,1.56049 6.03754,1.31849 6.0931,1.31187 "/>
   <path id="_594680424" style="fill:url(#id27);fill-rule:nonzero" d="M5.08684 1.83499c0,-0.0398031 0.00386319,-0.0718406 0.0116585,-0.096063 0.00771654,-0.0242864 0.0193061,-0.0430118 0.0346014,-0.0561713 0.0153051,-0.0131693 0.0345325,-0.0197441 0.0577116,-0.0197441 0.0171457,0 0.0321555,0.00367618 0.0450689,0.0109596 0.0129281,0.00721949 0.0235482,0.0177165 0.0320128,0.0314272 0.00838583,0.0137057 0.0149951,0.0303986 0.0197539,0.050064 0.00482283,0.0196703 0.0071998,0.0461565 0.0071998,0.0795276 0,0.0394882 -0.00386319,0.0713041 -0.0115059,0.0955955 -0.00772638,0.0242864 -0.0192372,0.0430217 -0.0345325,0.0562598 -0.0153051,0.0132382 -0.0346112,0.0198228 -0.057997,0.0198228 -0.030748,0 -0.0548819,-0.0115945 -0.0724163,-0.034872 -0.0210089,-0.0279626 -0.0315551,-0.0736516 -0.0315551,-0.136806zm0.0402461 0c0,0.0552461 0.00617126,0.091998 0.0184203,0.11033 0.0122539,0.0182579 0.0273278,0.0274213 0.0453051,0.0274213 0.0180413,0 0.0331152,-0.00925197 0.0453642,-0.0275886 0.0122638,-0.0183317 0.0184203,-0.0550787 0.0184203,-0.110162 0,-0.0553937 -0.0061565,-0.0922195 -0.0184203,-0.110399 -0.012249,-0.0182579 -0.0274705,-0.0273425 -0.0457431,-0.0273425 -0.0180413,0 -0.032377,0.00807579 -0.0431447,0.0241339 -0.01344,0.0204429 -0.0202018,0.0583661 -0.0202018,0.113607z"/>
   <path id="_594680328" style="fill:url(#id28);fill-rule:nonzero" d="M5.62241 2.16405c0,-0.1028 0.0111713,-0.234498 0.0925344,-0.304483 0.0305955,-0.0263337 0.0690699,-0.0394931 0.115404,-0.0394931 0.10029,0 0.156634,0.0620669 0.186176,0.157564l-0.066688 0.0551378c-0.00612697,-0.0403691 -0.0157037,-0.0702067 -0.0287352,-0.0895325 -0.024503,-0.0365157 -0.0549557,-0.0546949 -0.0914911,-0.0546949 -0.0360925,0 -0.0647638,0.0161516 -0.0862992,0.0482677 -0.0434498,0.0660974 -0.0434941,0.215531 -0.0383858,0.298445l-0.0729429 0.0603002c-0.00638287,-0.0385236 -0.00957185,-0.082377 -0.00957185,-0.131511z"/>
   <path id="_594680232" style="fill:url(#id29);fill-rule:nonzero" d="M3.3966 1.24332c-0.0141929,0.125103 -0.0667766,0.241033 -0.202864,0.241033 -0.137402,0 -0.187653,-0.114542 -0.202475,-0.241033l0.0795571 0c0.00558563,0.0550492 0.016378,0.0944734 0.0323228,0.118332 0.024503,0.0365108 0.0546506,0.0548474 0.0905955,0.0548474 0.0360925,0 0.06625,-0.0184892 0.090753,-0.0551624 0.0159252,-0.0238189 0.0267028,-0.0631742 0.0323031,-0.118017l0.0798081 0z"/>
   <path id="_594680136" style="fill:url(#id30);fill-rule:nonzero" d="M4.30152 1.48899c0,-0.0730512 0.00649114,-0.133007 0.0196063,-0.179818l0.0789469 0.0048622c-0.0120226,0.0428002 -0.0180561,0.101152 -0.0180561,0.174956 0,0.110477 0.0123278,0.183971 0.0368406,0.22064 0.0245079,0.0365157 0.0546506,0.0548524 0.0905955,0.0548524 0.0360925,0 0.06625,-0.0184941 0.090753,-0.0551624 0.0245177,-0.0366683 0.0368406,-0.110162 0.0368406,-0.22033 0,-0.0675443 -0.00458661,-0.12128 -0.0137156,-0.161181 0.0285236,0.00176181 0.0495768,0.00494094 0.077062,-0.00868602 0.0145325,0.0545374 0.0171555,0.113509 0.0171555,0.169867 0,0.102603 -0.0111811,0.233666 -0.0920915,0.303696 -0.0305955,0.0264862 -0.0692175,0.0396457 -0.116004,0.0396457 -0.178661,0 -0.207933,-0.193351 -0.207933,-0.343342z"/>
   <path id="_594680016" class="fil0" d="M2.28627 2.4586l0 -0.732461 0.105098 0 0 0.102643c0.021875,-0.0357776 0.0508809,-0.0647441 0.0870374,-0.0863976 0.0361467,-0.0218996 0.0774262,-0.0329724 0.123627,-0.0329724 0.0513238,0 0.093499,0.0113041 0.126309,0.0339075 0.0330266,0.0226083 0.0562254,0.0539124 0.0696161,0.0944144 0.055123,-0.0854675 0.126531,-0.128322 0.214459,-0.128322 0.0689567,0 0.121836,0.0202559 0.158888,0.0605118 0.0370423,0.0402608 0.0555659,0.10218 0.0555659,0.185773l0 0.502904 -0.116939 0 0 -0.461471c0,-0.0496752 -0.00378937,-0.0854675 -0.0113829,-0.107367 -0.00781004,-0.0216535 -0.0216388,-0.039311 -0.041501,-0.0527362 -0.0200837,-0.0131841 -0.0437451,-0.0200148 -0.0707431,-0.0200148 -0.048873,0 -0.0892569,0.0171949 -0.121614,0.051565 -0.0321358,0.0341388 -0.0484301,0.0889961 -0.0484301,0.164345l0 0.425679 -0.117603 0 0 -0.475832c0,-0.0553248 -0.00959646,-0.0967717 -0.0287894,-0.124311 -0.019188,-0.0275541 -0.0504281,-0.0414469 -0.0941732,-0.0414469 -0.0330167,0 -0.0635925,0.00918799 -0.0917077,0.0277854 -0.028125,0.0183711 -0.0486516,0.0452116 -0.0611467,0.0805266 -0.0127215,0.0355463 -0.0189665,0.0866437 -0.0189665,0.153278l0 0.38 -0.117603 0z"/>
   <path id="_594679944" class="fil1" d="M4.3404 2.40429c-0.0477805,0.0427018 -0.0936171,0.0727953 -0.1375,0.0905463 -0.044124,0.0174902 -0.0914173,0.0262303 -0.141875,0.0262303 -0.0833858,0 -0.147254,-0.0213484 -0.192116,-0.0643012 -0.0446063,-0.0429577 -0.0670374,-0.0980069 -0.0670374,-0.164616 0,-0.0393553 0.00828248,-0.0751033 0.0253543,-0.10752 0.0168209,-0.0324065 0.0390108,-0.0583809 0.066314,-0.077938 0.0275443,-0.0195472 0.0582579,-0.0344587 0.0926378,-0.044498 0.0251132,-0.0069439 0.0631398,-0.0138829 0.114085,-0.020315 0.103858,-0.0131152 0.180413,-0.0285482 0.229409,-0.0468159 0.000497047,-0.0185138 0.000738189,-0.0303543 0.000738189,-0.0352411 0,-0.0552904 -0.01219,-0.0943947 -0.036565,-0.116772 -0.0326722,-0.0308612 -0.0816732,-0.0460433 -0.14628,-0.0460433 -0.0604577,0 -0.105079,0.011063 -0.134085,0.03344 -0.0287697,0.022377 -0.0499754,0.0619882 -0.063873,0.118839l-0.125551 -0.0182677c0.0114518,-0.0565846 0.0302313,-0.102628 0.056314,-0.137352 0.0260827,-0.0349803 0.0641142,-0.0619882 0.113602,-0.0807677 0.0494931,-0.0187697 0.106786,-0.0282874 0.172121,-0.0282874 0.0648474,0 0.117264,0.00822835 0.157726,0.0241781 0.0404724,0.0162008 0.0702165,0.0362697 0.0894783,0.0606988 0.0190108,0.0244341 0.0321752,0.0550394 0.0399754,0.0923425 0.00414862,0.0231447 0.00633858,0.064813 0.00633858,0.125l0 0.180832c0,0.126289 0.00268209,0.206024 0.00829232,0.239208 0.00535925,0.03344 0.0163386,0.0655856 0.0324213,0.0961959l-0.134331 0c-0.0131545,-0.0280413 -0.0219341,-0.0609596 -0.0255955,-0.0987746zm-0.0107283 -0.302997c-0.0468061,0.0203248 -0.116772,0.0372933 -0.209902,0.0514419 -0.0529035,0.00797244 -0.090438,0.0169783 -0.112141,0.0270079 -0.021939,0.0100295 -0.0390108,0.0246998 -0.0507037,0.0442421 -0.0119488,0.0192913 -0.0180413,0.0406348 -0.0180413,0.0643012 0,0.0362697 0.0131545,0.0663632 0.0389961,0.0905413 0.0258514,0.0239222 0.0638829,0.0360138 0.113858,0.0360138 0.0494931,0 0.0936171,-0.011314 0.132131,-0.0342126 0.0385236,-0.0228888 0.0670472,-0.0542717 0.0850886,-0.0938878 0.0138927,-0.0306053 0.0207136,-0.0758711 0.0207136,-0.135551l0 -0.0498967z"/>
   <path id="_594674232" class="fil2" d="M5.15394 2.20984l0.126284 0.0174902c-0.0136516,0.0918307 -0.0489961,0.163848 -0.106043,0.215802 -0.056811,0.0519587 -0.126772,0.077938 -0.209665,0.077938 -0.103612,0 -0.187229,-0.035748 -0.250123,-0.107259 -0.0631398,-0.0715059 -0.0948327,-0.174129 -0.0948327,-0.307884 0,-0.0864222 0.0136516,-0.162047 0.0407136,-0.22686 0.0273031,-0.0648228 0.068499,-0.11344 0.124085,-0.145846 0.0553346,-0.0324016 0.115792,-0.0486073 0.180896,-0.0486073 0.0823967,0 0.149926,0.0221211 0.202092,0.0660974 0.0524213,0.0439911 0.086063,0.106235 0.100935,0.187259l-0.125069 0.020315c-0.0119439,-0.05375 -0.0329035,-0.0941437 -0.0631348,-0.121407 -0.0302264,-0.0270079 -0.0668061,-0.0406299 -0.10971,-0.0406299 -0.0648474,0 -0.117505,0.0244291 -0.157977,0.0735581 -0.0404626,0.0488632 -0.0607037,0.126289 -0.0607037,0.232259 0,0.10752 0.019503,0.185714 0.0587549,0.234587 0.0390108,0.0486122 0.0899656,0.0730413 0.152854,0.0730413 0.0504724,0 0.0923967,-0.0164567 0.126289,-0.0491191 0.0338829,-0.0326722 0.0553346,-0.0828248 0.0643553,-0.150733z"/>
   <g>
    <path id="_594675120" class="fil3" d="M5.24705 2.57187l-1.50739 1.24849 -0.0293406 -0.0421555 1.50739 -1.24849 0 0 0.0293406 0.0421555zm1.50739 -1.24847l-1.50739 1.24847 -0.0293406 -0.0421555 1.50739 -1.24847 0.0130364 -0.00471949 0.0163041 0.046875zm-3.03108 -0.046875l3.01477 0 0.00326772 0.0515945 -3.01477 0 0 0 -0.00326772 -0.0515945zm-3.01478 0l3.01478 0 0.00326772 0.0515945 -3.01478 0 -0.0146211 -0.00549213 0.0113533 -0.0461024zm1.49603 1.29457l-1.50739 -1.24847 0.0259744 -0.0406102 1.50739 1.24847 0 0 -0.0259744 0.0406102zm1.50739 1.24849l-1.50739 -1.24849 0.0259744 -0.0406102 1.50739 1.24849 0.00168307 0.0413829 -0.0276575 -0.000772638zm0.0276575 0.000772638l-0.0133612 0.0110679 -0.0142963 -0.0118406 0.0276575 0.000772638z"/>
   </g>
   <path class="fil4" d="M3.71804 2.40422l0.0264616 0.171196c-0.0515207,0.0113829 -0.0978346,0.0172589 -0.138568,0.0172589 -0.0668602,0 -0.118386,-0.0110138 -0.1553,-0.0334252 -0.0365551,-0.0220472 -0.0623228,-0.0514272 -0.0772982,-0.0878002 -0.0149705,-0.0360039 -0.0226329,-0.112406 -0.0226329,-0.228504l0 -0.657569 -1.06678 -0.011747 -0.0074311 -0.138873 1.07421 0 0 -0.283233 0.1828 -0.116083 0 0.399316 1.80909 0 0.00499016 0.119783 -1.62954 0.0308366 -0.184537 0 0 0.668233c0,0.0554675 0.00313976,0.0907283 0.00939961,0.106531 0.00662402,0.0157923 0.017062,0.0282874 0.0316831,0.0378346 0.0146309,0.00918799 0.0355266,0.0139616 0.0626821,0.0139616 0.0205364,0 0.0473524,-0.00256398 0.0807726,-0.00771654z"/>
  </g>
 </g>
</svg>
